<svg xmlns="http://www.w3.org/2000/svg" xmlns:xlink="http://www.w3.org/1999/xlink" width="630" height="323" viewBox="0 0 630 323">
    <defs>
        <linearGradient id="a" x1="0%" y1="50%" y2="50%">
            <stop offset="0%" stop-color="#00EDD8"/>
            <stop offset="100%" stop-color="#00548C"/>
        </linearGradient>
        <linearGradient id="b" x1="19.961%" x2="61.747%" y1="31.159%" y2="117.692%">
            <stop offset="0%" stop-color="#FEF6C4"/>
            <stop offset="100%" stop-color="#1BEEDF"/>
        </linearGradient>
        <linearGradient id="c" x1="84.12%" x2="4.205%" y1="53.533%" y2="72.528%">
            <stop offset="0%" stop-color="#006996" stop-opacity=".829"/>
            <stop offset="100%" stop-color="#1BEEDF" stop-opacity="0"/>
        </linearGradient>
        <linearGradient id="d" x1="0%" y1="50%" y2="50%">
            <stop offset="0%" stop-color="#FFF9C8"/>
            <stop offset="100%" stop-color="#F6C67E"/>
        </linearGradient>
        <path id="e" d="M.488 95.868S17.242 58.06 37.606 35.996s49.212 15.7 70.848 6.365c21.637-9.335 21.213-32.248 35.213-38.613 14-6.364 32.666-5.516 64.06 27.156 31.394 32.673 25.879 4.668 38.182 4.668s26.727 41.158 35.636 47.523c8.91 6.365 12.728 16.124 12.728 16.124s-56.017-10.944-62.796-8.443c-6.78 2.503 18.25 17.778-31.386 16.505-49.637-1.273-56.849-11.88-72.97-4.243-16.121 7.638-53.033 4.755-37.547-9.08 15.487-13.833-6.15-4.074-35.423.17C24.88 98.37-3.539 103.55.488 95.867"/>
    </defs>
    <g fill="none" fill-rule="evenodd">
        <path fill="#C9EEFF" d="M512.94 298.486V75.499c-1.396-1.079-3.24-1.734-5.263-1.734-1.09 0-2.125.19-3.07.533a5.949 5.949 0 0 0 .578-2.547c0-3.745-3.528-6.78-7.883-6.78-.509 0-1.002.04-1.483.119a8.634 8.634 0 0 0-2.286.704 9.76 9.76 0 0 0 .755-3.754c0-6.15-5.8-11.14-12.95-11.14-4.962 0-9.27 2.403-11.445 5.93-2.625-2.564-6.47-4.187-10.755-4.187-4.976 0-9.356 2.183-11.926 5.496-1.148-2.522-3.999-4.308-7.34-4.308-4.354 0-7.882 3.034-7.882 6.78 0 .53.071 1.046.207 1.54a14.692 14.692 0 0 0-5.274-.965c-7.149 0-12.948 4.989-12.948 11.14 0 1.864.536 3.62 1.474 5.163a17.085 17.085 0 0 0-1.474-.064c-6.22 0-11.516 3.413-13.493 8.18a9.327 9.327 0 0 0-.832-.037 8.784 8.784 0 0 0-4.222 1.054c-2.002-4.73-7.276-8.107-13.464-8.107-1.03 0-2.033.097-3 .275 1.358-1.102 2.208-2.664 2.208-4.397 0-3.338-3.146-6.045-7.027-6.045-2.945 0-5.465 1.56-6.51 3.772-2.593-7.733-10.878-13.39-20.701-13.39-11.834 0-21.436 8.21-21.541 18.37-3.493-2.1-7.738-3.335-12.321-3.335-.828 0-1.644.042-2.446.12-.302-3.1-3.32-5.537-7-5.537-1.15 0-2.236.24-3.194.661-3.396-4.04-8.917-6.672-15.157-6.672-6.42 0-12.083 2.784-15.452 7.025-2.298-8.111-10.794-14.134-20.929-14.134-9.571 0-17.68 5.371-20.489 12.798l-.083-.001c-4.48 0-8.175 2.88-8.726 6.606-2.93 1.03-5.352 2.91-6.835 5.293-2.404-1.567-5.398-2.499-8.646-2.499-.496 0-.99.022-1.474.064.939-1.543 1.474-3.3 1.474-5.164 0-5.921-5.375-10.764-12.155-11.116.383-.85.596-1.772.596-2.738 0-4.111-3.81-7.454-8.556-7.565.126-.697.193-1.41.193-2.137 0-7.581-7.144-13.727-15.955-13.727-5.274 0-9.945 2.204-12.849 5.597-1.507-1.038-3.416-1.661-5.496-1.661-3.601 0-6.696 1.863-8.058 4.528-4.924-3.477-11.224-5.565-18.092-5.565-2.463 0-4.855.269-7.135.774v259.77H512.94z"/>
        <path fill="#E6F6FF" d="M512.94 298.486c43.709-30.866 69.395-52.102 77.06-63.707 3.851-5.832 3.616-15.573-4.205-29.836-5.214-9.509-13.313-11.575-24.297-6.2 10.654-17.174 16.146-26.649 16.475-28.424 1.559-8.406 4.45-17.037 0-21.636-4.52-4.672-13.52-10.23-16.475-13.23-7.027-7.13 10.956-3.198 11.648-8.06 1.274-8.948-21.8-19.882-21.572-25.31.26-6.201-24.959-19.177-24.746-23.958.447-10.032 11.648-10.372 11.648-19.017 0-6.402-8.512-16.257-25.535-29.566a45.638 45.638 0 0 0-15.71-.134c-20.032 3.33-32.92 19.097-28.783 35.227a25.901 25.901 0 0 0 1.68 4.626c-12.032 1.984-19.467 11.083-17.081 20.385.904 3.529 3.1 6.585 6.103 8.908a24.4 24.4 0 0 0-1.664.217c-4.78.79-8.775 2.947-11.502 5.85-2.616-2.992-7.268-4.613-11.993-3.827-4.716.784-8.188 3.744-9.123 7.311-4.915-4.383-12.493-6.61-20.19-5.327-9.044 1.499-15.56 7.394-16.828 14.337a14.417 14.417 0 0 0-6.531-.415c-1.554-.21-1.934-.664-2.339-1.09-4.803-5.182-13.055-7.958-21.441-6.56a25.74 25.74 0 0 0-2.133.447c.833-2.336 1-4.869.35-7.415-2.157-8.41-12.374-13.814-22.814-12.078-2.742.453-5.231 1.358-7.364 2.597a7.777 7.777 0 0 0-.237-2.157 8.368 8.368 0 0 0-.944-2.227c-1.553-2.577-4.486-4.435-7.895-5.072a12.904 12.904 0 0 0-1.728-.218c-.586.033-1.165.109-1.728.218-3.408.637-6.341 2.495-7.895 5.072a8.368 8.368 0 0 0-.943 2.227 7.777 7.777 0 0 0-.238 2.157c-2.132-1.239-4.62-2.144-7.364-2.597-10.439-1.736-20.656 3.668-22.812 12.078-.65 2.546-.484 5.08.348 7.415a25.74 25.74 0 0 0-2.132-.447c-8.386-1.398-16.638 1.378-21.442 6.56-.404.426-.784.88-1.133 1.345-3.472-.631-5.723-.453-7.737.16-1.268-6.943-7.784-12.838-16.828-14.337-7.697-1.283-15.274.944-20.189 5.327-.935-3.567-4.407-6.527-9.124-7.311-4.724-.786-9.377.835-11.993 3.828-2.726-2.904-6.721-5.06-11.501-5.851a24.4 24.4 0 0 0-1.665-.217c3.004-2.323 5.2-5.38 6.104-8.908 2.386-9.302-5.05-18.4-16.607-20.322.222-1.55.801-3.094 1.205-4.69 4.138-16.13-8.75-31.895-28.781-35.226a45.638 45.638 0 0 0-15.711.134c-19.024 9.986-28.536 18.153-28.536 24.502 0 6.632-20.627 16.584-20.334 24.081.319 8.143-1.909 2.259 0 14.476 1.184 7.577-12.005-.656-20.197 12.02-3.5 5.416 3.375 27.057-10.958 35.485-16.958 9.97 9.717 62.764 80.025 158.38H512.94z"/>
        <path fill="#FFF" d="M512.94 298.486c30.024-53.141 46.681-86.263 49.973-99.365 1.962-7.81-19.759-12.52-18.061-17.018 5.47-14.495 21.606-6.765 22.61-14.729 1.456-11.556-31.707-23.552-31.707-32.525 0-17.12-7.605-24.592-22.814-22.417a30.527 30.527 0 0 0-3.07 1.916 38.094 38.094 0 0 0-5.44-7.523c-13.896-14.959-36.426-14.959-50.323 0-5.916 6.366-9.303 14.42-10.181 22.722-8.659-1.019-17.652 2.037-24.29 9.181-7.234 7.787-9.96 18.586-8.187 28.646-2.824.757-5.502 2.303-7.71 4.68-.247.265-.468.55-.696.828H232.55c.33-1.405.524-2.867.524-4.382 0-9.86-7.426-17.855-16.589-17.855-2.226 0-4.346.48-6.286 1.336-4.793-10.77-15.012-18.209-26.847-18.209-2.65 0-5.216.378-7.66 1.077-.183-9.09-6.663-16.507-14.939-17.376a26.249 26.249 0 0 0 1.338-8.304c0-13.588-10.233-24.603-22.858-24.603a21.45 21.45 0 0 0-10.164 2.567c-3.598-3.056-7.836-5.275-12.461-6.392-22.036-.473-33.054 8.221-33.054 26.084 0 26.793-17.78.57-28.74 18.225-.803 1.293-4.902 12.17-5.583 13.678-3.385 7.491 1.146 16.729-4.895 24.633-20.058 26.243 8.225 35.206 4.895 48.06-2.299 8.876-11.02 34.076-4.895 44.718 6.526 11.338 30.616 25.454 72.272 42.347H512.94z"/>
        <path fill="url(#a)" d="M0 267.65c0 30.465 141.03 55.162 315 55.162s315-24.697 315-55.161c0-30.465-141.03-55.161-315-55.161S0 237.186 0 267.65"/>
        <path fill="url(#b)" d="M99.273 241.285c0 17.907 97.25 32.425 217.212 32.425 119.962 0 217.212-14.518 217.212-32.425 0-17.908-97.25-32.426-217.212-32.426-119.963 0-217.212 14.518-217.212 32.426"/>
        <path fill="url(#c)" d="M99.273 241.285c0 17.907 97.25 32.425 217.212 32.425 119.962 0 217.212-14.518 217.212-32.425 0-17.908-97.25-32.426-217.212-32.426-119.963 0-217.212 14.518-217.212 32.426"/>
        <path fill="url(#d)" d="M129.818 232.645c0 12.069 80.344 21.852 179.455 21.852 99.11 0 179.454-9.783 179.454-21.852s-80.344-21.852-179.454-21.852c-99.11 0-179.455 9.783-179.455 21.852"/>
        <path fill="#65A8DB" d="M471.333 299.899s5.091-41.159 39.455-52.191c0 0-12.303 41.158-4.667 47.523l-34.788 4.668z"/>
        <path fill="#587EA0" d="M161.636 303.786s-3.448-27.881-26.727-35.355c0 0 8.335 27.881 3.161 32.193l23.566 3.162z"/>
        <path fill="#8AECE1" d="M85.273 232.433S22.06 252.8 114.545 265.105c0 0-73.393-16.548-29.272-32.672"/>
        <g transform="translate(155 126)">
            <mask id="f" fill="#fff">
                <use xlink:href="#e"/>
            </mask>
            <use fill="#00B18E" xlink:href="#e"/>
            <path fill="#007B7B" d="M37.704 36.291c12.227-10.083 15.287 6.135 1.621 22.282C25.66 74.719-.68 108.233-1.105 98.05 16.615 63.6 29.552 43.014 37.703 36.291zM153.844 4.22s-17.39 23.29-13.571 35.595c3.818 12.305-40.303 34.794-30.546 12.73 9.758-22.065 31.385-59.733 44.117-48.324M247.606 38.118c-4.121-1.091 20.788 37.34 2.121 33.52-18.666-3.818-47.09-1.696-35.636 11.882s9.318 23.847-2.553 24.441c0 0 30.129-.68 21.644-14.682-8.485-14.003 57.898 5.135 57.898 5.135s-29.05-56.477-43.474-60.296M97.847 84.412l10.608-14.47s-12.303 23.761 5.09 22.064c17.394-1.697 25.88 1.697 31.394 4.667 5.516 2.97-17.399 8.573-29.275 10.015-11.876 1.442-39.88 8.32-17.817-22.276" mask="url(#f)"/>
            <path fill="#007B7B" d="M160.212 12.659s-19.94 10.184-9.757 11.457c10.181 1.272 11.878-8.911 9.757-11.457M68.636 50.92c0-14.85-9.236-18.822-7.636-11.456 0 0 7.636 26.307 7.636 11.456z" mask="url(#f)"/>
        </g>
        <path fill="#C6F4EE" d="M170.97 230.735c1.272-5.516 6.595-9.545 13.578-8.351 6.982 1.193 14.09 7.1 13.666 10.494-.424 3.394-9.426 5.495-17.062 3.798 0 0-11.455-.425-10.182-5.94zM231.212 226.492s1.697-6.789 5.515-7.637c3.818-.85 14.849 0 14.849 5.091 0 5.092 0 3.395-2.97 3.82-2.97.423-18.242 2.97-17.394-1.274M243.94 235.827s.424-5.94 4.666-5.94 7.212 1.697 6.788 3.394c-.424 1.697-1.273 4.243-11.455 2.546M334.727 218.006s.425-5.94 6.788-5.94c6.364 0 9.333 1.272 10.182 3.818.848 2.546-4.242 5.94-12.303 4.668-8.06-1.273-4.667-2.546-4.667-2.546M366.545 230.735s.425-5.94 9.758-5.94c9.333 0 9.333 2.97 9.333 5.94s-8.484 4.243-12.727 3.82c-4.242-.425-6.364-.425-6.364-3.82M394.121 236.676s-2.121-6.79 3.394-6.79c5.515 0 7.212 1.698 6.788 3.82 0 0-1.273 4.667-10.182 2.97M451.818 237.524s-.848-5.94 3.394-6.364c4.243-.425 10.182-1.273 11.455 2.121 1.272 3.395-5.091 5.94-9.758 5.516-4.667-.424-4.242.425-5.09-1.273M367.818 211.217s.849-5.092 5.515-5.092c0 0 1.273-6.789 8.06-8.062 6.878-1.29 11.031.849 11.88 6.365.848 5.516.848 4.243.848 4.243s3.818 0 3.818 5.516c0 0-19.09-3.394-30.12-2.97M271.09 211.641s-.848-6.789-6.787-6.365c0 0-.848-5.94-10.182-5.94-9.333 0-11.03 8.486-11.454 9.335 0 0-6.788.849-6.788 4.243 0 0 27.576.424 35.212-1.273M343.92 211.358s1.838-6.081 7.777-6.93c5.94-.849 9.758 1.273 10.182 5.092l1.697 1.697-19.657.141z"/>
        <path fill="#FFD392" d="M201.152 225.946l3.393-49.645 5.94 49.645z"/>
        <path fill="#A8CF63" d="M201.152 179.447s-25.023-16.803-38.607 6.436c0 0 23.593-10.726 38.607-6.436M209.636 175.958s22.548-15.143 34.788 5.799c0 0-21.259-9.665-34.788-5.8M206.975 169.821s6.573-22.237 26.023-15.142c0 0-19.236 5.23-26.023 15.142M201.739 173.1s-11.772-19.977-28.92-8.374c0 0 19.931.405 28.92 8.374M202.848 171.634s6.364-17.397-3.393-20.791c0 0 3.393 15.668 3.393 20.791l10.646-31.783"/>
        <g>
            <path fill="#FFD392" d="M428 226l2.545-35L435 226z"/>
            <path fill="#A8CF63" d="M427 193.294s-17.5-12.286-27 4.706c0 0 16.5-7.843 27-4.706M434 190.817s16.204-10.921 25 4.183c0 0-15.278-6.971-25-4.183M432 186s4.547-16.134 18-10.986c0 0-13.306 3.794-18 10.986M429 189s-8.548-14.987-21-6.282c0 0 14.473.304 21 6.282M429.499 188s4.685-12.551-2.499-15c0 0 4.373 12.857 2.499 15"/>
        </g>
        <g>
            <path fill="#E5A16E" d="M385.125 129.732l1.28 8.312c.099.546.574.943 1.129.943h11.441c.544 0 1.013-.382 1.124-.915l1.462-8.312a1.147 1.147 0 0 0-1.123-1.381h-14.184c-.716 0-1.257.648-1.13 1.353"/>
            <path fill="#5B453B" d="M386.905 127.487h.424v-7.327h-.424zM399.414 127.578h.425v-7.418h-.425z"/>
            <path fill="#E55D53" d="M386.702 102.993s-6.802-12.806-17.43-30.878c-.09-.155-.181-.309-.273-.464-4.263-7.242-7.699-14.673-9.956-21.957-2.25-7.26-3.329-14.37-2.888-20.999.235-3.542.903-6.947 2.06-10.162 1.32-3.668 3.112-6.44 5.066-8.529-1.457.17-9.693 1.856-15.24 18.502-.021.063-.04.126-.062.19-2.341 7.148-2.365 14.292-.832 20.998 1.935 8.467 6.35 16.232 11.711 22.421a56.537 56.537 0 0 0 3.834 4.013c11.598 10.99 21.975 28.29 21.975 28.29s1.82.121 2.677-.961c-.364-.202-.642-.464-.642-.464M438.232 28.695l-.061-.19c-5.548-16.645-13.783-18.332-15.24-18.5 1.954 2.089 3.746 4.86 5.066 8.528 1.157 3.215 1.825 6.62 2.06 10.162.44 6.628-.638 13.74-2.888 20.999-2.258 7.284-5.693 14.715-9.957 21.957l-.272.464c-10.629 18.071-17.43 30.878-17.43 30.878s-.278.262-.642.464c.857 1.082 2.676.96 2.676.96s10.378-17.298 21.976-28.289a56.433 56.433 0 0 0 3.833-4.013c5.362-6.188 9.777-13.954 11.712-22.421 1.532-6.705 1.508-13.85-.833-20.999"/>
            <path fill="#F4F1EA" d="M356.098 29.778c-.039.949-.048 1.908-.028 2.875l.053 1.443c.05.982.128 1.973.235 2.97l.173 1.444c.12.899.262 1.803.425 2.712l.148.808.105.516.127.622.323 1.443a74.237 74.237 0 0 0 1.384 5.083c2.257 7.284 5.693 14.716 9.956 21.957l.273.464c10.628 18.072 17.43 30.878 17.43 30.878s.278.262.642.464c.567.314 1.342.48 1.608-.713-.253-.197-.418-.362-.418-.362s-5.346-17.075-10.64-30.267a187.89 187.89 0 0 0-1.365-3.313c-2.42-5.704-4.95-12.068-6.685-19.108-.076-.31-.149-.621-.223-.934l-.326-1.444c-.05-.236-.098-.474-.147-.712l-.283-1.443a74.207 74.207 0 0 1-.42-2.495h-.09v-.6a71.836 71.836 0 0 1-.26-2.042v.585l-.092-1.443a69.691 69.691 0 0 1-.23-2.918l-.069-1.444a67 67 0 0 1-.043-2.654l.022-1.443c.017-.666.04-1.336.079-2.012.206-3.659.729-7.453 1.644-11.383 1.616-6.936 4.346-11.018 7.276-13.378-1.389-.252-8.013.306-13.401 6.07-1.954 2.09-3.746 4.861-5.066 8.529-1.157 3.215-1.825 6.62-2.06 10.162M430.31 28.695c-.235-3.542-.904-6.947-2.06-10.162-1.32-3.668-3.112-6.44-5.066-8.529-5.389-5.763-12.012-6.323-13.4-6.07 2.929 2.36 5.658 6.442 7.274 13.378a66.598 66.598 0 0 1 1.644 11.383c.428 7.572-.496 14.567-2.082 20.999-1.735 7.04-4.265 13.404-6.684 19.108a178.62 178.62 0 0 0-1.365 3.313c-5.295 13.192-10.64 30.267-10.64 30.267s-.166.165-.42.362c.267 1.194 1.043 1.027 1.609.713.364-.202.642-.464.642-.464s6.802-12.807 17.43-30.878l.273-.464c4.263-7.242 7.699-14.673 9.957-21.957 2.25-7.26 3.329-14.37 2.888-20.999"/>
            <path fill="#E55D53" d="M390.772 101.771c-.875-10.582-3.364-19.924-5.823-29.656-1.784-7.06-3.55-14.327-4.672-22.421a124.724 124.724 0 0 1-1.143-20.998c.012-.401.024-.803.04-1.208.665-17.316 5.386-23.855 9.541-26.222-1.808-.426-7.193-1.232-12.034 2.668-2.929 2.36-5.659 6.442-7.275 13.378a66.514 66.514 0 0 0-1.644 11.384c-.428 7.571.496 14.566 2.082 20.998 1.736 7.04 4.266 13.404 6.685 19.108.451 1.066.908 2.175 1.365 3.313 5.294 13.192 10.64 30.267 10.64 30.267s.164.165.418.362c.651.507 1.887 1.228 2.432-.06a4.275 4.275 0 0 1-.612-.913M418.702 28.695a66.555 66.555 0 0 0-1.644-11.383c-1.616-6.936-4.345-11.018-7.274-13.378-4.842-3.9-10.227-3.094-12.035-2.668 4.154 2.367 8.875 8.906 9.542 26.222.016.405.027.807.039 1.207a124.724 124.724 0 0 1-1.143 20.999c-1.122 8.094-2.888 15.361-4.672 22.421-2.458 9.733-4.949 19.074-5.823 29.656 0 0-.229.487-.612.913.546 1.288 1.781.567 2.432.06.253-.197.418-.362.418-.362s5.347-17.075 10.64-30.267c.457-1.138.914-2.247 1.366-3.313 2.42-5.704 4.948-12.068 6.684-19.108 1.586-6.432 2.51-13.427 2.082-20.999"/>
            <path fill="#F4F1EA" d="M407.33 28.695c-.011-.4-.024-.802-.04-1.207-.665-17.316-5.386-23.855-9.541-26.222a9.65 9.65 0 0 0-2.507-1.003l.007-.047s-.79-.236-2.017-.214c-1.227-.022-2.016.214-2.016.214l.006.047a9.654 9.654 0 0 0-2.506 1.003c-4.155 2.367-8.876 8.906-9.542 26.222-.016.405-.028.807-.04 1.207a124.77 124.77 0 0 0 1.143 20.999c1.123 8.094 2.888 15.361 4.672 22.421 2.459 9.733 4.949 19.074 5.823 29.656 0 0 .23.487.612.913.446.496 1.102.91 1.849.373.745.538 1.4.123 1.847-.373.383-.426.612-.913.612-.913.875-10.582 3.365-19.923 5.823-29.656 1.784-7.06 3.55-14.327 4.672-22.421a124.768 124.768 0 0 0 1.143-20.999"/>
            <path fill="#5B453B" d="M387.764 119.631a.238.238 0 0 1-.238-.232c-.149-7.837-.966-12.22-.975-12.262a.238.238 0 0 1 .467-.09c.008.045.832 4.462.983 12.342a.237.237 0 0 1-.233.242h-.004zM393.327 118.984a.237.237 0 0 1-.237-.237l-.004-12.516a.237.237 0 1 1 .475 0l.004 12.516a.238.238 0 0 1-.238.237M398.912 118.961a.237.237 0 0 1-.236-.22c-.543-7.703.401-12.327.41-12.373a.237.237 0 0 1 .465.097c-.01.046-.94 4.613-.401 12.242a.237.237 0 0 1-.22.254h-.018"/>
            <path fill="#C8644F" d="M384.122 103.548s8.614-4.473 18.332-.11c0 0-1.767 3.148-2.32 6.019 0 0-7.95-1.491-13.748.553 0 0-.331-3.148-2.264-6.462M386.774 118.995s7.08-1.904 13.33-.146c0 0 1.122.88-.196 1.758 0 0-6.885-1.416-13.037.39 0 0-1.27-.976-.097-2.002M401.848 130.076h-16.97c-.7 0-1.272-.573-1.272-1.273s.573-1.273 1.273-1.273h16.97c.7 0 1.272.573 1.272 1.273s-.573 1.273-1.273 1.273M400.576 137.714h-14.424a.851.851 0 0 1-.849-.849c0-.467.382-.848.849-.848h14.424c.466 0 .848.381.848.848a.851.851 0 0 1-.848.849"/>
            <path fill="#FCCA7B" d="M395.485 132.622a2.121 2.121 0 1 1-4.243 0 2.121 2.121 0 0 1 4.243 0"/>
            <path fill="#C8644F" d="M369.247 84.043s19.874-7.006 48.299-1.066c1.697.849 1.697 3.395-1.33 2.587 0 0-24.62-5.064-46.624 1.397 0 0-2.531-1.014-.345-2.918"/>
            <path stroke="#5B453B" d="M369.606 85.523l17.818 35.218M380.424 83.19l10.182 35.642M417.121 85.523l-17.818 35.218M406.303 83.614l-10.182 35.642"/>
        </g>
        <path fill="#0080A2" d="M200.522 282.258c47.852 21.148 101.04 29.753 159.564 25.814 40.353-2.715 58.492-12.276 62.073-20.027 4.21-9.112 3.808-6.327-62.073 0-47.933 4.602-101.12 2.674-159.564-5.787z" opacity=".433"/>
        <path fill="#8AECE1" d="M200.522 277.233c47.852 10.487 101.04 14.753 159.564 12.8 40.353-1.346 58.492-6.087 62.073-9.93 4.21-4.518 3.808-3.137-62.073 0-47.933 2.282-101.12 1.325-159.564-2.87z"/>
    </g>
</svg>
