<svg xmlns="http://www.w3.org/2000/svg" width="30" height="16" viewBox="0 0 30 16">
    <g fill="none" fill-rule="evenodd">
        <path fill="#FFF" d="M-801-383H479v4935H-801z"/>
        <g fill-rule="nonzero" opacity=".65">
            <path fill="#D5D8DB" d="M29.31 7.698a.868.868 0 0 1-.651.84l-1.003.26a42.867 42.867 0 0 1-10.709 1.36H3.93A3.145 3.145 0 0 1 .79 7.184L.596 3.644c.142 2.288 1.188 5.503 9.195 5.503 8.085 0 16.732-.867 18.904-2.28a.872.872 0 0 1 .616.831z"/>
            <path fill="#000" d="M29.495 6.918c-.169-.227-.4-.39-.67-.473l-3.24-.988-.993-1.514a2.587 2.587 0 0 0-2.399-1.162l-3.239.289a.441.441 0 0 0 .078.879l3.24-.289a1.706 1.706 0 0 1 1.4.536l-1.936.541a.442.442 0 0 0-.301.596 2.35 2.35 0 0 0 2.705 1.401l1.49-.34 2.936.895a.427.427 0 0 1-.017.823l-1.003.258a42.462 42.462 0 0 1-9.709 1.335l.272-.183a.456.456 0 0 0 .203-.445.441.441 0 0 0-.436-.371H9.79a.441.441 0 0 0-.365.192l-.558.818H3.93a2.704 2.704 0 0 1-2.7-2.555L.95 2.043H3l1.114 2.913c.07.184.254.3.451.282l12.42-1.107a.441.441 0 0 0-.077-.88l-2.765.247L9.755.541A.44.44 0 0 0 9.51.465h-3.56a.442.442 0 0 0-.377.69l2 2.929-2.753.245-1.103-2.885a.441.441 0 0 0-.412-.283H.489a.442.442 0 0 0-.445.465L.35 7.21a3.587 3.587 0 0 0 3.58 3.39h4.335l-.227.331a.441.441 0 0 0 .728.498l1.258-1.84h6.408l-7.058 4.759H6.772l.982-1.437a.441.441 0 0 0-.729-.498L5.58 14.53a.442.442 0 0 0 .357.7H9.51a.44.44 0 0 0 .246-.075l6.758-4.556h.435c3.646 0 7.286-.462 10.819-1.373l1.002-.26a1.31 1.31 0 0 0 .726-2.047zm-5.551-1.044a1.47 1.47 0 0 1-1.418-.442l1.68-.469.484.74-.746.17zM6.772 1.348h2.602l3.374 2.275-4.168.371-1.808-2.646z"/>
            <path fill="#000" d="M7.345 6.754a1.281 1.281 0 0 0 2.559 0c0-.706-.574-1.28-1.28-1.28-.705 0-1.279.574-1.279 1.28zm1.677 0a.398.398 0 1 1-.795-.001.398.398 0 0 1 .795 0zM10.989 6.636a1.28 1.28 0 0 0 2.559 0c0-.706-.574-1.28-1.28-1.28-.705 0-1.28.575-1.28 1.28zm1.677 0a.398.398 0 1 1-.795 0 .398.398 0 0 1 .795 0zM14.783 6.46a1.281 1.281 0 0 0 2.559 0 1.28 1.28 0 0 0-1.28-1.28 1.28 1.28 0 0 0-1.279 1.28zm1.677 0a.398.398 0 1 1-.795-.001.398.398 0 0 1 .795 0z"/>
        </g>
    </g>
</svg>
