<svg xmlns="http://www.w3.org/2000/svg" width="27" height="27" viewBox="0 0 27 27">
    <g fill="none" fill-rule="evenodd">
        <path fill="#FFF" d="M-937-377H343v4935H-937z"/>
        <g fill="#000" fill-rule="nonzero" opacity=".65">
            <path d="M3.014 7.885a.423.423 0 0 0-.369.118l-.845.845a.423.423 0 0 0 .089.666l2.493 1.424a1.017 1.017 0 0 0 .867 1.578l.747.009-.503 2.014a.423.423 0 0 0 .544.503l1.267-.423a.423.423 0 0 0 .245-.211l1.219-2.438a48.337 48.337 0 0 0 4.241-1.562v5.078a.423.423 0 0 0 .58.393l2.113-.845a.423.423 0 0 0 .253-.29l1.633-6.534c.17-.093.296-.17.425-.25.102-.061.208-.127.346-.206l5.63-3.248a.965.965 0 0 0 .321-.301l1.592-2.388a.456.456 0 0 0 .032-.446.484.484 0 0 0-.361-.259L24.162.957a7.58 7.58 0 0 0-4.642.97l-3.378 1.982-7.094-2.763a.42.42 0 0 0-.383.039L6.754 2.42a.423.423 0 0 0-.015.7l4.869 3.449-3.648 2.14-4.946-.824zm.075.87l3.734.621-1.712 1.005-2.322-1.327.3-.3zm3.782 5.118l-.372.124.611-2.446 1.228-.614-1.467 2.936zm8.316.456l-1.333.533v-6.3l3.17-1.584-.17.668-.117.064.07.127-1.62 6.492zm4.758-11.671a6.715 6.715 0 0 1 2.986-.888c-.316.29-.693.51-1.103.639l-.4.133.267.803.4-.134a3.436 3.436 0 0 0 1.902-1.418c.024.003.048.003.073.005l.773.085-1.237 1.854a.115.115 0 0 1-.04.037l-5.63 3.248-.06.035.191-.766a.423.423 0 0 0-.598-.48l-4.227 2.112a.423.423 0 0 0-.233.379v1.19a47.387 47.387 0 0 1-3.71 1.416l.362-.727a.423.423 0 0 0-.567-.567L6.56 10.882a.423.423 0 0 0-.221.276l-.131.525-.967-.011a.181.181 0 0 1-.164-.099.178.178 0 0 1 .07-.232l14.799-8.683zm-12.209.134l1.206-.78 6.271 2.444L12.408 6.1 7.736 2.792zM25.265 21.826a3.385 3.385 0 0 0-3.381-3.381h-2.536a3.385 3.385 0 0 0-3.381 3.38v3.382h-4.226V20.98a.423.423 0 0 0-.423-.422H9.205v-4.226a.423.423 0 0 0-.423-.423H4.134a.423.423 0 0 0-.423.423v4.226H2.02a.423.423 0 0 0-.423.422v4.227H.753v.845H26.11v-.845h-.845v-3.381zm-5.917-2.536h2.536a2.54 2.54 0 0 1 2.5 2.113h-7.537a2.54 2.54 0 0 1 2.501-2.113zM8.782 21.403h.423v.423h-.423v-.423zM6.67 16.754v.423h-.422v-.423h.422zm-2.113 0h.845v.845c0 .234.19.423.423.423h1.268c.233 0 .423-.19.423-.423v-.845h.845v3.804H4.556v-3.804zm-.422 4.65h.422v.422h-.422v-.423zm-1.691 0h.845v.844c0 .234.19.423.423.423h1.268c.233 0 .422-.19.422-.423v-.845h.846v3.804H2.443v-3.804zm4.649 3.803v-3.804h.845v.845c0 .234.19.423.423.423h1.268c.233 0 .422-.19.422-.423v-.845h.846v3.804H7.092zm12.256 0v-1.268h2.536v1.268h-2.536zm3.381 0v-1.69a.423.423 0 0 0-.423-.423h-3.38a.423.423 0 0 0-.423.422v1.69h-1.69v-2.958h7.607v2.959h-1.691z"/>
        </g>
    </g>
</svg>
