<svg xmlns="http://www.w3.org/2000/svg" width="26" height="23" viewBox="0 0 26 23">
    <g fill="none" fill-rule="evenodd">
        <path fill="#FFF" d="M-1005-380H275v4935h-1280z"/>
        <path fill="#000" fill-rule="nonzero" d="M25.3 19.532l-.636-2.003a.372.372 0 0 0-.708.225l.636 2.003a.594.594 0 0 1-.386.745l-2.514.797a.593.593 0 0 1-.745-.386l-2.01-6.332a.593.593 0 0 1 .387-.745l.322-.102.766 2.413a.977.977 0 0 0 1.23.638.981.981 0 0 0 .639-1.231l-.766-2.413.322-.103a.594.594 0 0 1 .745.386l.849 2.676a.372.372 0 0 0 .708-.225l-.85-2.675a1.338 1.338 0 0 0-1.677-.87l-.322.103-.768-2.42V6.025A5.889 5.889 0 0 0 14.639.144H10.713C7.45.152 4.846 2.812 4.846 6.026v3.986l-.768 2.42-.323-.102a1.338 1.338 0 0 0-1.677.87l-2.01 6.332a1.338 1.338 0 0 0 .87 1.678l2.513.797a1.337 1.337 0 0 0 1.664-.834 1.863 1.863 0 0 0 2.8.45h3.902a.371.371 0 1 0 0-.742H8.443c.157-.406.125-.58.125-2.052H16.8v1.396c.002.233.047.455.124.656h-3.373a.371.371 0 1 0 0 .743h3.902a1.86 1.86 0 0 0 2.799-.45 1.335 1.335 0 0 0 1.665.834l2.513-.798a1.338 1.338 0 0 0 .87-1.678zm-7.757-7.034v-5.39l1.71 5.39h-1.71zm4.03 3.28a.238.238 0 0 1-.453.144L17.872 5.691l.453-.144 3.247 10.232zm-2.678-12.63a5.11 5.11 0 0 1 .884 2.878v1.646l-1.322-4.165.438-.359zM5.59 6.026a5.11 5.11 0 0 1 .883-2.878l.439.359-.464 1.461v.002L5.86 6.816l-.271.856V6.026zm-.018 4.156l1.472-4.635.452.144-3.248 10.231a.238.238 0 0 1-.452-.143l1.776-5.597zm-1.15 10.731a.594.594 0 0 1-.746.386l-2.513-.797a.594.594 0 0 1-.386-.745l2.01-6.333a.594.594 0 0 1 .744-.386l.323.103-.766 2.413a.981.981 0 0 0 1.869.593l.766-2.413.322.102c.314.1.484.435.386.745l-2.01 6.332zm3.404-.704a1.12 1.12 0 0 1-1.118 1.118 1.12 1.12 0 0 1-1.02-.662c-.13-.29-.098-.51-.098-.978l1.549-4.881a1.337 1.337 0 0 0-.61-1.565h1.297v6.968zm0-12.928v5.217H6.114l1.71-5.39v.173zm.464-4.092l-.57 1.794-.452-.144.57-1.793v-.001a.24.24 0 0 1 .298-.154.24.24 0 0 1 .154.298zm.07-1.006a.984.984 0 0 0-1.204.564l-.222-.182A5.123 5.123 0 0 1 10.728.887h1.584v2.236h-1.584a2.89 2.89 0 0 0-1.85.665L9 3.408a.98.98 0 0 0-.64-1.225zm8.44 15.904H8.569v-2.052H16.8v2.052zm0-2.795H8.569v-2.051H16.8v2.051zm0-2.794H8.569v-2.051H16.8v2.051zm0-2.794H8.569V7.652H16.8v2.052zm0-2.795H8.569v-.883c0-1.201.981-2.16 2.16-2.16h3.912c1.19 0 2.16.97 2.16 2.16v.883zm.012-4.638c-.687.4-.478 1.028-.321 1.52a2.902 2.902 0 0 0-1.85-.668h-1.585V.887H14.65a5.142 5.142 0 0 1 3.786 1.678l-.223.182a.98.98 0 0 0-1.401-.476zm.267.918v-.003a.24.24 0 0 1 .154-.295.24.24 0 0 1 .298.154l.57 1.794-.453.144-.569-1.794zm2.7 17.02a1.118 1.118 0 0 1-2.235.006V13.24h1.297a1.337 1.337 0 0 0-.61 1.565l1.549 4.881v.522z" opacity=".65"/>
    </g>
</svg>
