<svg xmlns="http://www.w3.org/2000/svg" width="29" height="19" viewBox="0 0 29 19">
    <g fill="none" fill-rule="evenodd">
        <path fill="#FFF" d="M-1071-381H209v4935h-1280z"/>
        <g fill="#000" fill-rule="nonzero" opacity=".65">
            <path d="M1.108 12.293l.415-4.839a2.99 2.99 0 0 1 .392-1.24l2.555-4.39a3.12 3.12 0 0 1 .565-.71h-.699a.437.437 0 0 1-.443-.411.425.425 0 0 1 .425-.438h7.96a.425.425 0 0 1 0 .85H7.18c-.81 0-1.568.435-1.976 1.136L2.65 6.64a2.135 2.135 0 0 0-.28.886l-.388 4.522H4.663v.036a3.737 3.737 0 0 1 2.641-1.091 3.754 3.754 0 0 1 3.75 3.75l-.002.058h6.636l-.001-.059a3.754 3.754 0 0 1 3.75-3.749c1.029 0 1.962.417 2.64 1.091v-.037h2.82l-.64-3.216a2.11 2.11 0 0 0-1.587-1.64l-5.719-1.33a.425.425 0 0 1-.31-.288l-.881-2.85a2.275 2.275 0 0 0-2.184-1.61H14.26a.425.425 0 0 1 0-.85h1.316c1.375 0 2.589.896 2.996 2.21l.81 2.616 5.48 1.275a2.96 2.96 0 0 1 2.229 2.3l.709 3.562a1.804 1.804 0 0 1 1.02 1.666c-.023.984-.854 1.759-1.839 1.759h-1.907a3.756 3.756 0 0 1-3.638 2.84 3.756 3.756 0 0 1-3.637-2.84h-6.857a3.756 3.756 0 0 1-3.638 2.84 3.756 3.756 0 0 1-3.637-2.84H2.049c-.99 0-1.822-.783-1.838-1.773a1.803 1.803 0 0 1 .897-1.586zm25.91 2.51a.953.953 0 0 0 0-1.905h-2.32c.31.545.488 1.175.488 1.845l-.002.06h1.834zm-5.582 2.84c1.6 0 2.9-1.3 2.9-2.9 0-1.598-1.3-2.9-2.9-2.9-1.599 0-2.9 1.301-2.9 2.9 0 1.6 1.301 2.9 2.9 2.9zm-14.132 0c1.6 0 2.9-1.3 2.9-2.9 0-1.598-1.3-2.9-2.9-2.9-1.598 0-2.9 1.301-2.9 2.9 0 1.6 1.302 2.9 2.9 2.9zm-5.291-2.84h1.543l-.001-.06c0-.67.178-1.3.487-1.845h-2.03a.953.953 0 0 0 0 1.904z"/>
            <path d="M25.42 9.414c0 .828-.673 1.501-1.5 1.501a1.503 1.503 0 0 1-1.502-1.5c0-.829.674-1.502 1.502-1.502.827 0 1.5.673 1.5 1.501zm-2.152 0a.652.652 0 1 0 1.305-.001.652.652 0 0 0-1.305.001zM4.447 6.64a.425.425 0 0 1 .001-.426l2.057-3.536a1.44 1.44 0 0 1 1.242-.714h7.829a1.43 1.43 0 0 1 1.372 1.012l1.03 3.326a.424.424 0 0 1-.406.55H4.815a.425.425 0 0 1-.368-.212zm11.69-3.413a.584.584 0 0 0-.561-.413h-3.921v3.189h5.34l-.859-2.776zm-5.332 2.776V2.814H7.747a.588.588 0 0 0-.507.292L5.554 6.003h5.25zM10.465 8.168c0-.235.19-.425.425-.425h1.586a.425.425 0 0 1 0 .85H10.89a.425.425 0 0 1-.425-.425zM21.436 12.829c1.056 0 1.915.859 1.915 1.915 0 1.055-.859 1.914-1.915 1.914a1.917 1.917 0 0 1-1.915-1.914c0-1.056.86-1.915 1.915-1.915zm0 2.98a1.066 1.066 0 0 0 0-2.13 1.066 1.066 0 0 0 0 2.13zM7.304 12.829c1.056 0 1.915.859 1.915 1.915 0 1.055-.859 1.914-1.915 1.914a1.917 1.917 0 0 1-1.915-1.914c0-1.056.86-1.915 1.915-1.915zm0 2.98a1.066 1.066 0 0 0 0-2.13 1.066 1.066 0 0 0 0 2.13zM12.702 12.842a.425.425 0 0 1 0 .85h-.736a.425.425 0 0 1 0-.85h.736zM16.838 12.842a.425.425 0 0 1 0 .85h-2.72a.425.425 0 0 1 0-.85h2.72z"/>
        </g>
    </g>
</svg>
