<svg xmlns="http://www.w3.org/2000/svg" width="26" height="27" viewBox="0 0 26 27">
    <g fill="none" fill-rule="evenodd">
        <path fill="#FFF" d="M-738-377H542v4935H-738z"/>
        <g fill="#000" fill-rule="nonzero" opacity=".65">
            <path d="M11.166 13.138h.843v.844h-.843zM9.479 13.138h.843v.844H9.48zM16.227 14.404h.843v.843h-.843zM14.54 14.404h.843v.843h-.843zM16.227 12.717h.843v.843h-.843zM14.54 12.717h.843v.843h-.843zM16.227 11.03h.843v.843h-.843zM14.54 11.03h.843v.843h-.843zM16.227 9.343h.843v.843h-.843zM14.54 9.343h.843v.843h-.843zM16.227 7.656h.843v.843h-.843zM14.54 7.656h.843v.843h-.843zM7.792 13.138h.843v.844h-.843zM11.166 11.451h.843v.844h-.843zM9.479 11.451h.843v.844H9.48zM7.792 11.451h.843v.844h-.843zM11.166 9.764h.843v.844h-.843zM9.479 9.764h.843v.844H9.48zM7.792 9.764h.843v.844h-.843zM11.166 8.077h.843v.844h-.843zM9.479 8.077h.843v.844H9.48zM7.792 8.077h.843v.844h-.843zM11.166 6.39h.843v.844h-.843zM9.479 6.39h.843v.844H9.48zM7.792 6.39h.843v.844h-.843zM11.166 4.703h.843v.844h-.843zM9.479 4.703h.843v.844H9.48zM7.792 4.703h.843v.844h-.843zM7.37 18.621h.843v.844H7.37zM9.057 18.621h3.374v.844H9.057zM5.683 20.308h8.857v.844H5.683z"/>
            <path d="M25.505 16.512c0-3.12-.808-5.06-2.109-5.06-1.3 0-2.109 1.94-2.109 5.06a2.113 2.113 0 0 0 1.687 2.067v6.79h-1.687v-2.53h.422a.422.422 0 0 0 .422-.422v-2.952a.422.422 0 0 0-.243-.382l-1.81-.844a.422.422 0 0 0-.402.025c-.29.183-.598.338-.919.462V6.812a.422.422 0 0 0-.26-.39l-4.801-2V1.33a.422.422 0 0 0-.57-.396l-6.748 2.53a.422.422 0 0 0-.273.396v13.668a8.216 8.216 0 0 0-2.452 2.113.422.422 0 0 0-.079.245v2.53c0 .234.189.423.422.423h.422v2.53H2.73v-6.79a2.113 2.113 0 0 0 1.687-2.067c0-3.12-.808-5.06-2.11-5.06-1.3 0-2.108 1.94-2.108 5.06a2.113 2.113 0 0 0 1.687 2.067v6.79H.2v.844h25.305v-.844h-1.687v-6.79a2.113 2.113 0 0 0 1.687-2.067zm-24.461 0c0-2.91.74-4.217 1.265-4.217.525 0 1.265 1.307 1.265 4.217a1.265 1.265 0 0 1-.843 1.188v-1.188h-.844V17.7a1.265 1.265 0 0 1-.843-1.188zm16.026 2.53c-1.255 0-1.997-.497-2.856-1.074-.168-.112-.34-.226-.518-.337v-.697h4.218v2.029c-.279.052-.561.079-.844.08zm.844-11.948v8.997h-4.218V5.336l4.218 1.758zm-5.061-5.156v12.887H6.948V4.152l5.905-2.214zm-5.905 13.73h5.905v1.487a6.508 6.508 0 0 0-2.953-.643 7.518 7.518 0 0 0-2.952.602V15.67zm-2.53 4.362A7.292 7.292 0 0 1 9.9 17.356c1.889 0 2.883.667 3.844 1.312.892.6 1.814 1.218 3.326 1.218a5.628 5.628 0 0 0 2.856-.788l1.361.635v2.262H4.417V20.03zM9.9 22.84v.843H6.948v-.843H9.9zm-2.952 1.687H9.9v.843H6.948v-.843zm3.796-1.687h1.687v2.53h-1.687v-2.53zm2.53 0h1.687v2.53h-1.687v-2.53zm2.53 1.687h2.953v.843h-2.952v-.843zm2.953-.844h-2.952v-.843h2.952v.843zM5.261 25.37v-2.53h.844v2.53H5.26zm14.34 0v-2.53h.843v2.53H19.6zm2.53-8.857c0-2.91.74-4.217 1.265-4.217.526 0 1.265 1.307 1.265 4.217a1.265 1.265 0 0 1-.843 1.188v-1.188h-.844V17.7a1.265 1.265 0 0 1-.843-1.188z"/>
            <path d="M19.6 20.308h.844v.844H19.6z"/>
        </g>
    </g>
</svg>
