<svg xmlns="http://www.w3.org/2000/svg" width="24" height="24" viewBox="0 0 24 24">
    <g fill="none" fill-rule="evenodd">
        <path fill="#5B8EF4" d="M7.75 13.8c0-.357-.122-.664-.367-.918A1.181 1.181 0 0 0 6.5 12.5c-.344 0-.638.127-.883.382-.245.254-.367.56-.367.918 0 .357.122.664.367.918.245.255.54.382.883.382.344 0 .638-.127.883-.382.245-.254.367-.56.367-.918zm.281-2.6h7.938l-.696-2.9c-.01-.044-.046-.091-.109-.143-.062-.051-.117-.077-.164-.077H9c-.047 0-.102.026-.164.077-.063.052-.099.099-.11.142L8.032 11.2zm10.719 2.6c0-.357-.122-.664-.367-.918a1.181 1.181 0 0 0-.883-.382c-.344 0-.638.127-.883.382-.245.254-.367.56-.367.918 0 .357.122.664.367.918.245.255.54.382.883.382.344 0 .638-.127.883-.382.245-.254.367-.56.367-.918zm1.25-.78v3.12a.259.259 0 0 1-.07.187.238.238 0 0 1-.18.073H19v1.04c0 .433-.146.802-.438 1.105A1.419 1.419 0 0 1 17.5 19c-.417 0-.77-.152-1.063-.455A1.535 1.535 0 0 1 16 17.44V16.4H8v1.04c0 .433-.146.802-.438 1.105A1.419 1.419 0 0 1 6.5 19c-.417 0-.77-.152-1.063-.455A1.535 1.535 0 0 1 5 17.44V16.4h-.75a.238.238 0 0 1-.18-.073.259.259 0 0 1-.07-.187v-3.12c0-.504.17-.933.512-1.288A1.655 1.655 0 0 1 5.75 11.2h.219l.82-3.404c.12-.51.39-.936.813-1.28C8.023 6.172 8.49 6 9 6h6c.51 0 .977.172 1.398.516.422.344.693.77.813 1.28l.82 3.404h.219c.484 0 .897.177 1.238.532.341.355.512.784.512 1.288z"/>
    </g>
</svg>
