<svg xmlns="http://www.w3.org/2000/svg" xmlns:xlink="http://www.w3.org/1999/xlink" width="564" height="357" viewBox="0 0 564 357">
    <defs>
        <linearGradient id="a" x1="0%" y1="50%" y2="50%">
            <stop offset="0%" stop-color="#FFF9C8"/>
            <stop offset="50.866%" stop-color="#FADFA2"/>
            <stop offset="100%" stop-color="#FCEAB3"/>
        </linearGradient>
        <linearGradient id="b" x1="50%" x2="50%" y1="0%" y2="100%">
            <stop offset="0%" stop-color="#FFC065"/>
            <stop offset="100%" stop-color="#FFA557"/>
        </linearGradient>
        <linearGradient id="c" x1="50%" x2="50%" y1="25.541%" y2="100%">
            <stop offset="0%" stop-color="#E5A16E"/>
            <stop offset="100%" stop-color="#C8644F"/>
        </linearGradient>
        <linearGradient id="d" x1="50%" x2="50%" y1="0%" y2="100%">
            <stop offset="0%" stop-color="#FF746A"/>
            <stop offset="100%" stop-color="#FFAE6A"/>
        </linearGradient>
        <path id="e" d="M103.328 2.512C93.99 59.175 61.772 93.574 6.673 105.71 2.846 93.594.816 84.659.583 78.9c-.957-23.625.76-38.899 22.002-57.022C44.824 2.906 71.738-3.549 103.328 2.512z"/>
        <linearGradient id="g" x1="50%" x2="50%" y1="0%" y2="100%">
            <stop offset="0%" stop-color="#CDCFDE"/>
            <stop offset="100%" stop-color="#9EA2BA"/>
        </linearGradient>
        <linearGradient id="h" x1="50%" x2="50%" y1="37.082%" y2="100%">
            <stop offset="0%" stop-color="#00B18E"/>
            <stop offset="100%" stop-color="#0089A1"/>
        </linearGradient>
        <linearGradient id="i" x1="50%" x2="50%" y1="68.302%" y2="150.434%">
            <stop offset="0%" stop-color="#A8CF63"/>
            <stop offset="100%" stop-color="#00B18E"/>
        </linearGradient>
    </defs>
    <g fill="none" fill-rule="evenodd">
        <path fill="#9EA2BA" d="M633.826 138v4.707h-4.033V138h-2.657v4.707h-8.494v10.323h-4.906v-13.909h-4.868v13.91h-31.06v5.153h2.893v98.391h-4.485v-7.41h1.592v-2.791h-16.7v2.79h1.591v7.411h-4.884v-4.025h-10.689v4.025h-12.345v36.04h-9.957V244.65h-3.858v-4.146h-20.978v4.146h-11.576V197.03h2.895v-4.548h-44.755v-10.324h-4.666v-4.705h-2.658v4.705h-4.032v-4.705h-2.655v4.705h-8.494v10.324h-4.907v-13.91h-4.87v13.91h-10.256v-22.16h-10.311v-16.767h2.25v-3.946h-23.609v3.946h2.25v16.767h-4.18v-3.617h-15.11v3.617H339.39v96.263h-4.18v-4.923h-4.822v4.923h-20.578v-34.514h2.572v-2.818h-8.682v-72.082h-5.42v-6.905H283.81v6.905h-4.822v-3.498h-6.758v3.498h-13.648v52.698h-9.955v19.384h-25.442v-8.247h-4.668V216.3h-2.656v4.707h-4.032V216.3h-2.657v4.707h-8.494v8.247h-5.973V206.49h-5.466v-6.246h-16.076v6.246h-29.26v-46.142h3.86v-3.175h-9.968v-13.808H124.29v13.808h-6.19v-3.946h-7.353v3.946H60.951v3.175h3.86v84.302h-7.074v-3.763h-4.502v3.763H28.399V197.03h2.893v-4.548h-4.66v-10.324h-4.667v-4.705h-2.656v4.705h-4.032v-4.705H12.62v4.705H4.126v10.324H-.78v-13.91h-4.87v13.91H-56v4.548h2.893V329h577.93v-.344h55.878V329h435.406V197.03H1019v-4.547h-12.988v-10.324h-22.506v10.324h-51.799v4.548h3.136v28.525h-10.312v-6.903h2.25v-3.945h-23.608v3.945h2.25v6.903h-4.18v-3.615h-15.112v3.615h-15.915v-36.19h-10.311v-12.84h2.252v-3.022h-23.61v3.022h2.25v12.84h-4.18v-2.77h-15.11v2.77H805.59v69.146h-5.075v-3.303h1.125v-1.512h-11.804v1.512h1.125v3.303h-14.95v-3.737h2.572v-2.157h-8.68v-55.197h-5.423v-5.286h-14.467v5.286h-4.823v-2.68h-6.758v2.68h-13.648v40.356h-9.957v14.841h-21.112v-46.13h-5.466v-6.245h-16.076v6.246h-29.258v-48.305h2.893v-5.154h-4.66v-10.323h-4.667V138h-2.656zm-369.834 36.219h4.099V163.09h-4.1v11.129zm367.987 3.835h3.644v-9.1h-3.644v9.1zm-6.48 0h3.646v-9.1h-3.646v9.1zm-10.344 0h3.643v-9.1h-3.643v9.1zm-6.478 0h3.642v-9.1h-3.642v9.1zm-479.064 6.139h3.644v-9.098h-3.644v9.098zm-6.48 0h3.644v-9.098h-3.644v9.098zm-17.36 0h3.645v-9.098h-3.645v9.098zm-6.478 0h3.645v-9.098h-3.645v9.098zm-17.358 0h3.644v-9.098h-3.644v9.098zm-6.48 0H79.1v-9.098h-3.644v9.098zm188.535 11.066h4.099v-11.127h-4.1v11.127zm123.247-2.74h6.464v-8.144h-6.464v8.143zm-12.755 0h6.464v-8.144h-6.464v8.143zm-12.753 0h6.464v-8.144h-6.464v8.143zm270.248 2.924h3.644v-9.1h-3.644v9.1zm-6.48 0h3.646v-9.1h-3.646v9.1zm-10.344 0h3.643v-9.1h-3.643v9.1zm-6.478 0h3.642v-9.1h-3.642v9.1zm-479.064 6.139h3.644v-9.1h-3.644v9.1zm-6.48 0h3.644v-9.1h-3.644v9.1zm-17.36 0h3.645v-9.1h-3.645v9.1zm-6.478 0h3.645v-9.1h-3.645v9.1zm-17.358 0h3.644v-9.1h-3.644v9.1zm-6.48 0H79.1v-9.1h-3.644v9.1zm777.986 4.78h6.463v-6.238h-6.463v6.237zm-12.755 0h6.463v-6.238h-6.463v6.237zm-12.755 0h6.464v-6.238h-6.464v6.237zm-97.74 4.112h4.101v-8.52h-4.1v8.52zm-98.214 2.358h3.644v-9.1h-3.644v9.1zm-6.48 0h3.646v-9.1h-3.646v9.1zm-10.344 0h3.643v-9.1h-3.643v9.1zm-6.478 0h3.642v-9.1h-3.642v9.1zM263.992 216.3h4.099v-11.127h-4.1V216.3zm123.247-1.35h6.464v-8.144h-6.464v8.144zm-12.755 0h6.464v-8.144h-6.464v8.144zm-12.753 0h6.464v-8.144h-6.464v8.144zm632.914 6.546h11.367V209.87h-11.367v11.626zm-23.954 0h11.368V209.87h-11.368v11.626zm-23.952 0h11.367V209.87h-11.367v11.626zm-505.736-1.849h5.21v-9.777h-5.21v9.777zm-10.978 0h5.208v-9.777h-5.208v9.777zm-10.981 0h5.21v-9.777h-5.21v9.777zm-289.431-.677h3.644v-9.1h-3.644v9.1zm-6.48 0h3.644v-9.1h-3.644v9.1zm-17.36 0h3.645v-9.1h-3.645v9.1zm-6.478 0h3.645v-9.1h-3.645v9.1zm-17.358 0h3.644v-9.1h-3.644v9.1zm-6.48 0H79.1v-9.1h-3.644v9.1zm-68.521 2.526h11.368V209.87H6.936v11.626zm-23.952 0H-5.65V209.87h-11.367v11.626zm-23.954 0H-29.6V209.87H-40.97v11.626zm716.174 2.579h9.28V216.3h-9.28v7.775zm-496.093-1.035h6.592v-6.74h-6.592v6.74zm674.332.498h6.463v-6.236h-6.463v6.236zm-12.755 0h6.463v-6.236h-6.463v6.236zm-12.755 0h6.464v-6.236h-6.464v6.236zm-97.74 3.048h4.101v-8.52h-4.1v8.52zm-98.214 3.634h3.644v-9.1h-3.644v9.1zm-6.48 0h3.646v-9.1h-3.646v9.1zm-10.344 0h3.643v-9.1h-3.643v9.1zm-6.478 0h3.642v-9.1h-3.642v9.1zm-479.064 6.14h3.644v-9.1h-3.644v9.1zm-6.48 0h3.644v-9.1h-3.644v9.1zm-17.36 0h3.645v-9.1h-3.645v9.1zm-6.478 0h3.645v-9.1h-3.645v9.1zm-17.358 0h3.644v-9.1h-3.644v9.1zm-6.48 0H79.1v-9.1h-3.644v9.1zm311.782 1.023h6.464v-8.144h-6.464v8.144zm-12.755 0h6.464v-8.144h-6.464v8.144zm-12.753 0h6.464v-8.144h-6.464v8.144zm-182.62-1.175h6.592v-6.74h-6.592v6.74zm261.892 4.04h5.21v-9.776h-5.21v9.776zm-10.978 0h5.208v-9.776h-5.208v9.776zm-10.981 0h5.21v-9.776h-5.21v9.776zm256.16-.984h9.28v-7.774h-9.28v7.774zm54.99 3.435h4.1v-8.52h-4.1v8.52zm264.451 3.29h11.367v-11.624h-11.367v11.624zm-23.954 0h11.368v-11.624h-11.368v11.624zm-23.952 0h11.367v-11.624h-11.367v11.624zm-939.803 0h11.368v-11.624H6.936v11.624zm-23.952 0H-5.65v-11.624h-11.367v11.624zm-23.954 0H-29.6v-11.624H-40.97v11.624zm894.413-5.272h6.463v-6.237h-6.463v6.237zm-12.755 0h6.463v-6.237h-6.463v6.237zm-12.755 0h6.464v-6.237h-6.464v6.237zm-195.954 6.892h3.644v-9.098h-3.644v9.098zm-6.48 0h3.646v-9.098h-3.646v9.098zm-10.344 0h3.643v-9.098h-3.643v9.098zm-6.478 0h3.642v-9.098h-3.642v9.098zm309.39.144h6.464v-8.145h-6.464v8.145zm-12.753 0h6.464v-8.145h-6.464v8.145zm-12.755 0h6.464v-8.145h-6.464v8.145zm-713.448 1.623h6.592v-6.74h-6.592v6.74zm-49.498 4.372h3.644v-9.1h-3.644v9.1zm-6.48 0h3.644v-9.1h-3.644v9.1zm-17.36 0h3.645v-9.1h-3.645v9.1zm-6.478 0h3.645v-9.1h-3.645v9.1zm-17.358 0h3.644v-9.1h-3.644v9.1zm-6.48 0H79.1v-9.1h-3.644v9.1zm216.954 1.398h5.6v-9.1h-5.6v9.1zm-9.956 0h5.6v-9.1h-5.6v9.1zm-26.674 0h5.6v-9.1h-5.6v9.1zm-9.954 0h5.6v-9.1h-5.6v9.1zm429.377-.69h9.28v-7.776h-9.28v7.776zm-234.201 6.393h5.21v-9.776h-5.21v9.776zm-10.978 0h5.208v-9.776h-5.208v9.776zm-10.981 0h5.21v-9.776h-5.21v9.776zm434.399-2.954h6.463v-6.238h-6.463v6.238zm-12.755 0h6.463v-6.238h-6.463v6.238zm-12.755 0h6.464v-6.238h-6.464v6.238zm-440.694 1.92h6.464v-8.144h-6.464v8.143zm-12.755 0h6.464v-8.144h-6.464v8.143zm-12.753 0h6.464v-8.144h-6.464v8.143zm151.519 4.02h4.5v-11.647h-4.5v11.648zm-8.883 0h4.5v-11.647h-4.5v11.648zm-8.882 0h4.503v-11.647h-4.503v11.648zm-442.25 7.3h4.502v-18.947h-4.502v18.948zm-8.88 0h4.5v-18.947h-4.5v18.948zm-8.884 0h4.502v-18.947h-4.502v18.948zm143.64-8.592h6.592v-6.739h-6.592v6.74zm452.868 2.455h3.644v-9.1h-3.644v9.1zm-6.48 0h3.646v-9.1h-3.646v9.1zm-10.344 0h3.643v-9.1h-3.643v9.1zm-6.478 0h3.642v-9.1h-3.642v9.1zm385.968 5.486h11.367v-11.625h-11.367v11.625zm-23.954 0h11.368v-11.625h-11.368v11.625zm-23.952 0h11.367v-11.625h-11.367v11.625zm-939.803 0h11.368v-11.625H6.936v11.625zm-23.952 0H-5.65v-11.625h-11.367v11.625zm-23.954 0H-29.6v-11.625H-40.97v11.625zm716.174-.838h9.28v-7.775h-9.28v7.775zm-545.591 1.491h3.644v-9.1h-3.644v9.1zm-6.48 0h3.644v-9.1h-3.644v9.1zm-17.36 0h3.645v-9.1h-3.645v9.1zm-6.478 0h3.645v-9.1h-3.645v9.1zm-17.358 0h3.644v-9.1h-3.644v9.1zm-6.48 0H79.1v-9.1h-3.644v9.1zm842.61-.953h6.464v-8.143h-6.464v8.143zm-12.753 0h6.464v-8.143h-6.464v8.143zm-12.755 0h6.464v-8.143h-6.464v8.143zm-600.148 2.348h5.6v-9.099h-5.6v9.1zm-9.956 0h5.6v-9.099h-5.6v9.1zm-26.674 0h5.6v-9.099h-5.6v9.1zm-9.954 0h5.6v-9.099h-5.6v9.1zm512.786-.087h5.6v-6.968h-5.6v6.968zm-9.956 0h5.601v-6.968h-5.6v6.968zm-26.672 0h5.6v-6.968h-5.6v6.968zm-9.956 0h5.599v-6.968h-5.6v6.968zm-169.514 4.693h4.099V266.01h-4.1v11.127zm248.287-1.388h9.279v-7.776h-9.28v7.776zm-611.69-.039h6.59v-6.739h-6.59v6.74zm334.138 6.705h4.5v-11.647h-4.5v11.647zm-8.883 0h4.5v-11.647h-4.5v11.647zm-8.882 0h4.503v-11.647h-4.503v11.647zm-54.482-.967h5.21v-9.777h-5.21v9.777zm-10.978 0h5.208v-9.777h-5.208v9.777zm-10.981 0h5.21v-9.777h-5.21v9.777zm212.935.938h3.644v-9.1h-3.644v9.1zm-6.48 0h3.646v-9.1h-3.646v9.1zm-10.344 0h3.643v-9.1h-3.643v9.1zm-6.478 0h3.642v-9.1h-3.642v9.1zm66.527 2.45h9.28v-7.776h-9.28v7.775zm83.41.922h5.6v-6.967h-5.6v6.967zm-9.957 0h5.601v-6.967h-5.6v6.967zm-26.672 0h5.6v-6.967h-5.6v6.967zm-9.956 0h5.599v-6.967h-5.6v6.967zm-582.416 2.767h3.644v-9.099h-3.644v9.1zm-6.48 0h3.644v-9.099h-3.644v9.1zm-17.36 0h3.645v-9.099h-3.645v9.1zm-6.478 0h3.645v-9.099h-3.645v9.1zm-17.358 0h3.644v-9.099h-3.644v9.1zm-6.48 0H79.1v-9.099h-3.644v9.1zm216.954 1.397h5.6v-9.1h-5.6v9.1zm-9.956 0h5.6v-9.1h-5.6v9.1zm-26.674 0h5.6v-9.1h-5.6v9.1zm-9.954 0h5.6v-9.1h-5.6v9.1zm-66.716-1.044h6.592v-6.74h-6.592v6.74zM53.235 301.364h4.502v-18.948h-4.502v18.948zm-8.88 0h4.5v-18.948h-4.5v18.948zm-8.884 0h4.502v-18.948h-4.502v18.948zm755.33-10.425h9.28v-7.774h-9.28v7.774zm203.844 4.037h11.367v-11.624h-11.367v11.624zm-23.954 0h11.368v-11.624h-11.368v11.624zm-23.952 0h11.367v-11.624h-11.367v11.624zm-939.803 0h11.368v-11.624H6.936v11.624zm-23.952 0H-5.65v-11.624h-11.367v11.624zm-23.954 0H-29.6v-11.624H-40.97v11.624zm959.037-2.36h6.464v-8.144h-6.464v8.144zm-12.753 0h6.464v-8.144h-6.464v8.144zm-12.755 0h6.464v-8.144h-6.464v8.144zm-350.044 5.564h4.099v-11.127h-4.1v11.127zm89.464 1.593h3.644v-9.097h-3.644v9.097zm-6.48 0h3.646v-9.097h-3.646v9.097zm-10.344 0h3.643v-9.097h-3.643v9.097zm-6.478 0h3.642v-9.097h-3.642v9.097zm149.936-.698h5.6v-6.967h-5.6v6.967zm-9.956 0h5.601v-6.967h-5.6v6.967zm-26.672 0h5.6v-6.967h-5.6v6.967zm-9.956 0h5.599v-6.967h-5.6v6.967zm-36.825.95h9.28v-7.772h-9.28v7.772zm-234.201 2.024h5.21v-9.777h-5.21v9.777zm-10.978 0h5.208v-9.777h-5.208v9.777zm-10.981 0h5.21v-9.777h-5.21v9.777zm-239.933 0h6.592v-6.74h-6.592v6.74zm-49.498 3.865h3.644v-9.1h-3.644v9.1zm-6.48 0h3.644v-9.1h-3.644v9.1zm-17.36 0h3.645v-9.1h-3.645v9.1zm-6.478 0h3.645v-9.1h-3.645v9.1zm-17.358 0h3.644v-9.1h-3.644v9.1zm-6.48 0H79.1v-9.1h-3.644v9.1zm216.954 1.396h5.6v-9.099h-5.6v9.1zm-9.956 0h5.6v-9.099h-5.6v9.1zm-26.674 0h5.6v-9.099h-5.6v9.1zm-9.954 0h5.6v-9.099h-5.6v9.1zm544.975-1.18h9.279v-7.775h-9.28v7.775zm-32.189 6.261h5.6v-6.967h-5.6v6.967zm-9.956 0h5.601v-6.967h-5.6v6.967zm-26.672 0h5.6v-6.967h-5.6v6.967zm-9.956 0h5.599v-6.967h-5.6v6.967zm206.038 2.658h6.464v-8.144h-6.464v8.144zm-12.753 0h6.464v-8.144h-6.464v8.144zm-12.755 0h6.464v-8.144h-6.464v8.144zm-217.355.168h9.28v-7.775h-9.28v7.775zm319.441 4.254h11.367v-11.625h-11.367v11.625zm-23.954 0h11.368v-11.625h-11.368v11.625zm-23.952 0h11.367v-11.625h-11.367v11.625zm-939.803 0h11.368v-11.625H6.936v11.625zm-23.952 0H-5.65v-11.625h-11.367v11.625zm-23.954 0H-29.6v-11.625H-40.97v11.625zm220.081-4.254h6.592v-6.74h-6.592v6.74z" opacity=".217"/>
        <path fill="url(#a)" d="M0 334.852c0 12.069 126.255 21.852 282 21.852s282-9.783 282-21.852S437.745 313 282 313 0 322.783 0 334.852"/>
        <g transform="translate(78)">
            <path fill="#342E23" d="M146.807 93.115c-8.05 0-16.551-1.224-25.409-3.669-12.266-3.384-22.964-8.53-29.779-12.25-7.388-4.034-11.947-7.319-11.992-7.351l.87-1.27c.045.032 4.548 3.276 11.867 7.269 6.747 3.681 17.336 8.77 29.465 12.112 21.327 5.877 51.635 7.345 74.894-19.035l1.12 1.043c-5.488 6.224-11.65 11.264-18.313 14.981-6.06 3.382-12.67 5.742-19.644 7.017-4.207.769-8.573 1.153-13.08 1.153M206.418 92.501h1.225V77.163h-1.225zM216.83 92.501h1.226V77.163h-1.225zM155.432 49.555a.754.754 0 0 1-.314-.068L61.697 6.837a.763.763 0 0 1 .628-1.386l93.422 42.648a.763.763 0 0 1-.315 1.456M.756 49.555a.751.751 0 0 1-.606-.306.767.767 0 0 1 .154-1.067L56.983 5.533a.75.75 0 0 1 1.056.156c.25.337.18.814-.154 1.066L1.206 49.404a.747.747 0 0 1-.45.151"/>
            <path fill="#CF9430" d="M64.927 9.37a4.598 4.598 0 0 1-4.595 4.601A4.598 4.598 0 0 1 55.74 9.37a4.598 4.598 0 0 1 4.593-4.602 4.598 4.598 0 0 1 4.595 4.602"/>
            <path fill="#52514E" d="M63.702 9.37c0 1.863-1.371 3.374-3.063 3.374-1.691 0-3.063-1.51-3.063-3.374s1.372-3.374 3.063-3.374c1.692 0 3.063 1.51 3.063 3.374"/>
            <path fill="#F6C136" d="M75.683 69.188H51.45V41.58h24.232l4.557 13.804-4.557 13.804"/>
            <path fill="#607579" d="M56.031 40.034h14.372L64.52 11.835h-8.488v28.2zm16.246 1.546H54.514V10.29h11.234l6.529 31.29zM174.05 68.574l-1.32-.693 9.091-18.94 1.321.694-9.092 18.94"/>
            <path fill="#607579" d="M191.034 68.574l-9.117-18.953 1.296-.68 9.117 18.954-1.296.68"/>
            <path fill="#607579" d="M193.038 68.574l-1.32-.693 9.091-18.94 1.321.694-9.092 18.94"/>
            <path fill="#607579" d="M210.022 68.574l-9.117-18.953 1.296-.68 9.117 18.954-1.296.68"/>
            <path fill="#607579" d="M211.32 68.401l-1.32-.694 9.092-18.939 1.32.694-9.091 18.939M230.32 69.401l-1.32-.694 9.092-18.939 1.32.694-9.091 18.939"/>
            <path fill="#607579" d="M229.116 68.401L220 49.448l1.296-.68 9.117 18.953-1.297.68M247.116 69.401L238 50.448l1.296-.68 9.117 18.953-1.297.68M155.062 68.574l-1.32-.693 9.091-18.94 1.321.694-9.092 18.94"/>
            <path fill="#607579" d="M172.658 68.574l-9.116-18.953 1.295-.68 9.118 18.954-1.297.68M136.687 68.574l-1.321-.693 9.092-18.94 1.32.694-9.091 18.94"/>
            <path fill="#607579" d="M153.67 68.574l-9.116-18.953 1.295-.68 9.118 18.954-1.297.68M117.699 68.574l-1.321-.693 9.092-18.94 1.32.694-9.091 18.94"/>
            <path fill="#607579" d="M134.682 68.574l-9.116-18.953 1.295-.68 9.118 18.954-1.297.68M98.06 68.574l-1.282-.675 9.13-18.957 1.282.675-9.13 18.957M116.307 68.574l-9.117-18.953 1.296-.68 9.117 18.954-1.296.68M78.469 69.801l-1.292-.701 9.121-20.158 1.292.701-9.121 20.158"/>
            <path fill="#607579" d="M96.094 68.574l-9.117-18.953 1.296-.68 9.117 18.954-1.296.68"/>
            <path fill="#607579" d="M86.977 50.169V48.96l171.505-.02v1.208l-171.505.02"/>
            <path fill="#607579" d="M249.71 68.258h16.587L258 51.433l-8.292 16.825zm17.815 1.543H.757A.765.765 0 0 1 0 69.03V49.738c0-.425.339-.77.757-.771l41.123-.025.001 1.543-40.366.025v17.748h246.499l9.31-18.89a.757.757 0 0 1 .677-.426c.287 0 .549.164.677.425l9.524 19.316a.786.786 0 0 1-.033.752.754.754 0 0 1-.644.366z"/>
            <path fill="#607579" d="M32.56 68.574l-1.322-.693 9.092-18.94 1.321.694-9.092 18.94"/>
            <path fill="#607579" d="M49.543 68.574l-9.117-18.953 1.296-.68 9.117 18.954-1.296.68M12.959 68.574l-1.321-.693 9.092-18.94 1.32.694-9.091 18.94"/>
            <path fill="#607579" d="M29.942 68.574l-9.116-18.953 1.295-.68 9.117 18.954-1.296.68M10.285 68.574l-9.06-18.973 1.353-.66 9.06 18.974-1.353.66M53.612 315.508h17.729V78.09H53.612v237.418zm18.503 1.54H52.838a.772.772 0 0 1-.774-.77V77.32c0-.426.346-.77.774-.77h19.277c.428 0 .774.344.774.77v238.958c0 .426-.346.77-.774.77z"/>
            <path fill="#607579" d="M71.006 97.41l-18.521-9.495a.797.797 0 0 1-.421-.705.8.8 0 0 1 .408-.714l18.521-9.946.671 1.412-17.175 9.223 17.163 8.8-.646 1.425"/>
            <path fill="#607579" d="M71.006 116.429l-18.521-9.495a.797.797 0 0 1-.421-.705.798.798 0 0 1 .408-.714l18.521-9.946.671 1.413-17.175 9.223 17.163 8.798-.646 1.426"/>
            <path fill="#607579" d="M71.006 134.834l-18.521-9.495a.796.796 0 0 1-.421-.705.798.798 0 0 1 .408-.713l18.521-9.947.671 1.413-17.175 9.224 17.163 8.798-.646 1.425"/>
            <path fill="#607579" d="M71.006 154.467l-18.521-9.495a.797.797 0 0 1-.421-.705.798.798 0 0 1 .408-.714l18.521-9.946.671 1.413-17.175 9.223 17.163 8.798-.646 1.426"/>
            <path fill="#607579" d="M71.006 173.486l-18.521-9.495a.795.795 0 0 1-.421-.705.798.798 0 0 1 .408-.713l18.521-9.947.671 1.412-17.175 9.224 17.163 8.798-.646 1.426"/>
            <path fill="#607579" d="M71.006 192.505l-18.521-9.495a.797.797 0 0 1-.421-.705.798.798 0 0 1 .408-.714l18.521-9.946.671 1.412-17.175 9.224 17.163 8.798-.646 1.426"/>
            <path fill="#607579" d="M71.006 210.91l-18.521-9.494a.797.797 0 0 1-.421-.706.798.798 0 0 1 .408-.713l18.521-9.946.671 1.412-17.175 9.223 17.163 8.799-.646 1.425"/>
            <path fill="#607579" d="M53.361 219.5l-.685-1.297 18.916-9.133.685 1.296L53.36 219.5M71.006 249.562l-18.521-9.495a.797.797 0 0 1-.421-.705.798.798 0 0 1 .408-.714l18.521-9.946.671 1.412-17.175 9.224 17.163 8.798-.646 1.426"/>
            <path fill="#607579" d="M71.006 269.194L52.485 259.7a.797.797 0 0 1-.421-.706.798.798 0 0 1 .408-.713l18.521-9.946.671 1.413-17.175 9.223 17.163 8.798-.646 1.425"/>
            <path fill="#607579" d="M71.006 288.213l-18.521-9.494a.797.797 0 0 1-.421-.706.8.8 0 0 1 .408-.713l18.521-9.946.671 1.412-17.175 9.224 17.163 8.798-.646 1.425"/>
            <path fill="#607579" d="M72.229 306.619l-19.722-9.505a.79.79 0 0 1-.443-.704.793.793 0 0 1 .425-.716l19.257-9.935.698 1.411-17.844 9.205 18.29 8.815-.661 1.429"/>
            <path fill="#607579" d="M53.361 315.208l-.685-1.297 18.916-9.133.685 1.297-18.916 9.133M71.592 229.93l-18.916-9.134.685-1.297 18.916 9.133-.685 1.297"/>
            <path fill="#373734" d="M48.389 77.163h15.313v-7.362H48.389z"/>
            <path fill="#52514E" d="M63.702 77.163h15.313v-7.362H63.702z"/>
            <path fill="#373734" d="M42.264 333h20.825v-15.951H42.264z"/>
            <path fill="#52514E" d="M61.864 333H82.69v-15.951H61.864z"/>
            <path fill="#373734" d="M197.23 77.163h30.626v-7.362H197.23z"/>
            <path fill="#42A3C9" d="M75.342 61.212H60.639V44.647h13.078l3.46 10.046-1.835 6.519"/>
            <path fill="#CF9430" d="M218.668 92.195c0 3.557-2.742 6.442-6.125 6.442s-6.125-2.885-6.125-6.442c0-3.558 2.742-6.442 6.125-6.442s6.125 2.884 6.125 6.442"/>
            <path fill="#F6C136" d="M216.59 109.136c0 .639-.5 1.157-1.114 1.157h-6.014c-.615 0-1.114-.518-1.114-1.157l-1.93-9.955c0-.64.499-1.158 1.114-1.158h10.023c.614 0 1.113.519 1.113 1.158l-2.079 9.955"/>
            <path fill="#52514E" d="M211.247 110.293v2.692s-.216 2.437 1.495 2.693c1.296.194 4.272.097 5.711 2.022 1.44 1.925.927 4.648 0 6.449-.811 1.577-2.408 3.16-5.71 2.888-3.505-.29-5.617-2.118-5.713-3.562 0 0 0 4.51 5.712 5.583 4.716.886 7.024-.675 8.304-2.599 1.408-2.12 2.112-3.753 1.86-7.011-.184-2.371-1.375-5.009-4.417-6.278-2.831-1.182-3.484-.867-3.484-.867v-2.01h-3.758"/>
            <path fill="#0A0B09" d="M206.752 102.318l-.334-1.61 3.196-2.685h2.317l-5.18 4.295M207.361 105.385l-.33-1.595 6.933-5.767h2.254l-8.857 7.362M211.852 110.293h-2.372l9.188-7.362-.548 2.347-6.268 5.015M208.008 110.293l-.365-1.844 9.981-9.812s.177.021.37.539c.192.517-.122 1.33-.122 1.33l-9.864 9.787M213.768 110.907l3.063-3.068-.315 1.937-1.022 1.13h-1.726"/>
            <rect width="53.974" height="53.248" x="36.512" y="30.2" fill="url(#b)" rx="7"/>
            <rect width="44.449" height="16.69" x="41.274" y="40.532" fill="#9EA2BA" rx="2"/>
            <ellipse cx="60.324" cy="10.332" fill="#E5A16E" rx="10.319" ry="10.332"/>
            <ellipse cx="60.721" cy="10.729" fill="#FFB757" rx="5.953" ry="5.961"/>
        </g>
        <path fill="#FCCA7B" d="M311.358 326.642l1.895-12.716c2.267 0 3.361 5.315 3.361 7.586 0 3.8-2.99 5.13-5.256 5.13zM284.974 325.317l-1.935-12.98c-2.313 0-3.43 5.425-3.43 7.744 0 3.879 3.052 5.236 5.365 5.236z"/>
        <path fill="url(#c)" d="M70.034 233.428l2.33 14.916a2.082 2.082 0 0 0 2.058 1.691H95.26c.992 0 1.845-.685 2.047-1.64l2.663-14.917c.27-1.278-.72-2.478-2.046-2.478H72.09c-1.303 0-2.289 1.163-2.056 2.428" transform="translate(212.935 83.449)"/>
        <path fill="#5B453B" d="M286.441 313.098h.613v-12.895h-.613zM308.493 313.098h.613v-12.895h-.613z"/>
        <path fill="url(#d)" d="M72.965 186.54s-12.221-23.153-31.317-55.826l-.49-.839c-7.66-13.092-13.834-26.528-17.89-39.697-4.043-13.124-5.98-25.98-5.19-37.964.424-6.404 1.625-12.562 3.703-18.373 2.372-6.632 5.591-11.643 9.102-15.42-2.617.306-17.415 3.355-27.382 33.45-.038.114-.073.228-.11.343-4.208 12.924-4.25 25.84-1.496 37.964 3.476 15.307 11.408 29.347 21.042 40.536a101.944 101.944 0 0 0 6.887 7.256c20.84 19.87 39.485 51.146 39.485 51.146s3.27.22 4.81-1.737a6.35 6.35 0 0 1-1.154-.84M165.729 51.793c-.038-.115-.072-.23-.11-.344C155.65 21.355 140.854 18.305 138.237 18c3.51 3.777 6.73 8.788 9.101 15.419 2.08 5.812 3.28 11.969 3.702 18.374.792 11.982-1.145 24.839-5.188 37.964-4.057 13.168-10.23 26.604-17.89 39.697-.165.28-.328.56-.49.84-19.097 32.67-31.318 55.825-31.318 55.825s-.5.474-1.154.838c1.54 1.957 4.808 1.738 4.808 1.738s18.647-31.277 39.487-51.146c2.363-2.254 4.67-4.68 6.887-7.256 9.635-11.189 17.567-25.229 21.044-40.536 2.752-12.123 2.71-25.04-1.497-37.964" transform="translate(212.935 83.449)"/>
        <path fill="#FFF" d="M230.768 136.88a83.233 83.233 0 0 0-.05 5.182l.095 2.603c.09 1.77.232 3.556.425 5.354l.313 2.603c.217 1.62.473 3.25.766 4.89l.268 1.455.189.93c.077.374.152.748.23 1.122l.585 2.602c.71 3.034 1.543 6.09 2.498 9.162 4.079 13.131 10.285 26.529 17.987 39.583l.492.837c19.199 32.578 31.487 55.665 31.487 55.665s.5.472 1.16.836c1.022.566 2.422.866 2.904-1.285a8.795 8.795 0 0 1-.756-.653s-9.657-30.782-19.22-54.563a338.329 338.329 0 0 0-2.466-5.973c-4.37-10.282-8.94-21.756-12.076-34.447-.137-.558-.269-1.12-.403-1.683l-.588-2.603c-.091-.426-.178-.855-.266-1.283l-.511-2.603c-.277-1.484-.53-2.983-.76-4.497H252.91v-1.083a129.25 129.25 0 0 1-.47-3.68v1.055l-.165-2.602a125.383 125.383 0 0 1-.417-5.26l-.123-2.603c-.058-1.58-.083-3.174-.078-4.785l.04-2.601c.03-1.201.072-2.408.142-3.627a119.763 119.763 0 0 1 2.97-20.521c2.92-12.504 7.85-19.862 13.143-24.117-2.508-.455-14.474.552-24.208 10.943-3.53 3.767-6.766 8.763-9.151 15.375-2.09 5.795-3.297 11.935-3.722 18.32M364.673 134.928c-.425-6.386-1.632-12.524-3.722-18.32-2.384-6.612-5.62-11.608-9.15-15.375-9.733-10.39-21.696-11.399-24.204-10.943 5.291 4.255 10.222 11.613 13.14 24.117a119.84 119.84 0 0 1 2.97 20.521c.772 13.65-.897 26.26-3.762 37.855-3.134 12.691-7.703 24.165-12.072 34.447a321.647 321.647 0 0 0-2.467 5.973c-9.562 23.78-19.218 54.563-19.218 54.563s-.3.298-.757.653c.48 2.152 1.882 1.85 2.905 1.285.657-.365 1.16-.837 1.16-.837s12.286-23.087 31.483-55.664l.493-.837c7.7-13.055 13.906-26.452 17.985-39.583 4.064-13.087 6.012-25.906 5.216-37.855"/>
        <path fill="url(#d)" d="M79.752 183.706c-1.58-19.142-6.08-36.04-10.524-53.646-3.224-12.77-6.415-25.917-8.443-40.558a225.82 225.82 0 0 1-2.066-37.984c.021-.726.043-1.452.072-2.185C59.994 18.01 68.526 6.181 76.035 1.9c-3.268-.77-13-2.229-21.748 4.826-5.295 4.269-10.228 11.653-13.148 24.2a120.421 120.421 0 0 0-2.972 20.592c-.773 13.697.897 26.349 3.763 37.984 3.137 12.735 7.709 24.247 12.081 34.565.816 1.929 1.641 3.935 2.468 5.993 9.566 23.863 19.228 54.75 19.228 54.75s.298.3.756.656c1.176.917 3.41 2.22 4.394-.11-.69-.77-1.105-1.65-1.105-1.65M130.898 51.517a120.502 120.502 0 0 0-2.972-20.592c-2.92-12.546-7.852-19.93-13.145-24.2C106.03-.328 96.3 1.13 93.03 1.9c7.508 4.282 16.04 16.11 17.245 47.434.028.733.05 1.46.07 2.184a225.83 225.83 0 0 1-2.065 37.985c-2.028 14.64-5.22 27.787-8.443 40.558-4.443 17.605-8.944 34.504-10.524 53.646 0 0-.414.88-1.106 1.65.986 2.33 3.22 1.026 4.395.11.457-.357.756-.656.756-.656s9.662-30.887 19.229-54.75c.825-2.059 1.65-4.065 2.468-5.993 4.372-10.317 8.943-21.83 12.079-34.565 2.866-11.635 4.537-24.288 3.763-37.985" transform="translate(212.935 83.449)"/>
        <path fill="#FFF" d="M323.095 135.127c-.021-.721-.044-1.445-.072-2.175-1.21-31.185-9.793-42.961-17.345-47.223a17.639 17.639 0 0 0-4.557-1.806l.013-.085s-1.435-.426-3.667-.387c-2.23-.04-3.665.387-3.665.387l.012.085a17.645 17.645 0 0 0-4.557 1.806c-7.552 4.262-16.134 16.038-17.344 47.223-.03.73-.052 1.454-.073 2.175-.41 13.9.47 26.322 2.077 37.817 2.041 14.576 5.251 27.664 8.493 40.379 4.47 17.528 8.996 34.351 10.585 53.409 0 0 .418.876 1.112 1.643.813.894 2.005 1.64 3.361.671 1.356.97 2.547.223 3.359-.671.695-.767 1.112-1.643 1.112-1.643 1.59-19.058 6.117-35.881 10.586-53.409 3.243-12.715 6.452-25.803 8.492-40.38a222.643 222.643 0 0 0 2.078-37.816"/>
        <path fill="#5B453B" d="M287.879 298.975a.412.412 0 0 1-.4-.413c-.252-13.935-1.63-21.729-1.643-21.805a.422.422 0 0 1 .318-.494.404.404 0 0 1 .468.336c.014.078 1.402 7.933 1.657 21.946.004.233-.172.427-.393.43h-.007zM297.163 298.975c-.168 0-.304-.195-.304-.438l-.004-23.072c0-.242.136-.437.303-.437.168 0 .304.195.304.437l.005 23.072c0 .242-.136.438-.304.438M307.465 298.945c-.635-13.69.468-23.5.48-23.581.031-.227.176-.377.328-.326.15.047.245.27.215.499-.013.08-1.098 9.787-.47 23.349.011.232-.103.434-.257.45h-.02c-.144 0-.265-.168-.276-.391z"/>
        <path fill="#C8644F" d="M280.928 270.089s15.543-8.095 33.078-.2c0 0-3.188 5.698-4.185 10.893 0 0-14.346-2.698-24.807 1 0 0-.598-5.696-4.086-11.693M312.954 316.421h-30.361c-1.252 0-2.277-.967-2.277-2.15 0-1.181 1.025-2.148 2.277-2.148h30.361c1.253 0 2.277.967 2.277 2.149s-1.024 2.149-2.277 2.149M310.653 330.544h-25.76a1.53 1.53 0 0 1-1.514-1.535 1.53 1.53 0 0 1 1.515-1.535h25.76c.833 0 1.515.69 1.515 1.535a1.53 1.53 0 0 1-1.516 1.535"/>
        <path fill="#FCCA7B" d="M297.57 324.702a3.68 3.68 0 0 1-3.674-3.684c0-2.034 1.645-8.681 3.675-8.681s3.675 6.647 3.675 8.681a3.68 3.68 0 0 1-3.675 3.684z"/>
        <path fill="#5B453B" fill-rule="nonzero" d="M254.847 238.365l.708-.358 31.853 63.246-.708.357zM274.421 233.383l.763-.219 18.377 64.474-.763.218zM339.992 238.007l.709.358-31.853 63.245-.709-.357zM319.416 234.086l.763.218-18.377 64.473-.763-.218z"/>
        <path fill="#C8644F" d="M284.654 298.941s13.663-3.894 25.727-.298c0 0 2.167 1.797-.377 3.594 0 0-13.289-2.896-25.164.799 0 0-2.45-1.998-.186-4.095M254.364 235.301s36.04-12.826 87.587-1.952c3.077 1.554 3.077 6.214-2.412 4.735 0 0-44.648-9.268-84.55 2.558 0 0-4.59-1.856-.625-5.34"/>
        <g transform="translate(212.141 82.654)">
            <mask id="f" fill="#fff">
                <use xlink:href="#e"/>
            </mask>
            <use fill="#555978" xlink:href="#e"/>
            <g fill="#B5AF92" mask="url(#f)">
                <path d="M38.193 74.498L4.138 49.022l.959-1.757L39.453 72.97l-1.26 1.528M79.441 38.616L42.905 9.376l1.235-1.548 36.536 29.24-1.235 1.548"/>
                <path d="M36.774 75.271v-63.98h1.978v59.682L78.384 37.06l.026-.02L116.04 8.82l1.184 1.586L79.62 38.608 36.774 75.27"/>
                <path fill-rule="nonzero" d="M39.82 69.938l1.647 1.65-34.264 34.307-1.647-1.65z"/>
                <path fill-rule="nonzero" d="M30.16 65.955l-1.346 1.788 37.15 28.032 1.346-1.788z"/>
                <path d="M76.305 2.18C38.141 4.698 18.756 23.965 9.185 39.843 3.663 49.004.742 58.037-.735 64a80.304 80.304 0 0 0-1.613 8.28l78.653-70.1zm-80.91 72.493c.013-.183.31-4.531 1.95-11.15 1.51-6.097 4.497-15.332 10.147-24.705 6.36-10.551 14.725-19.121 24.865-25.472C45.01 5.42 60.462.958 78.283.082l.398-.019.777-.028C89.617-.286 99.11 1.69 105.381 3.443c7.056 1.973 11.55 4.041 11.738 4.128l-.831 1.799c-.045-.021-4.566-2.099-11.48-4.03-5.68-1.585-14.064-3.358-23.142-3.358-.043 0 11.865 11.595 35.725 34.786l-1.375 1.424-36.97-35.801-83.808 74.693.158-2.411z"/>
                <path d="M78.329 75.467L20.753 22.864l1.337-1.46 57.576 52.602-1.337 1.46"/>
                <path d="M8.885 38.446h69.128v-1.982H8.885zM78.013 36.365h1.978V.1h-1.978z"/>
            </g>
        </g>
        <path fill="url(#g)" d="M103.14 3C87.504 59.194 54.424 92.198 3.9 102.012c-2.922 17.772 1.271 31.41 12.579 40.913 18.13 14.894 63.122 7.138 76.8-44.351C102.397 64.247 105.684 32.39 103.14 3z" transform="translate(212.141 82.654)"/>
        <g transform="translate(22 248)">
            <path fill="url(#h)" d="M18.743 85.053C6.248 80.557 0 71.633 0 58.28 0 44.927 6.25 25.5 18.75 0v.103c12.667 25.434 19 44.827 19 58.178 0 13.355-6.336 22.287-19.007 26.796v-.024z"/>
            <rect width="2" height="63" x="18" y="18" fill="#007F90" rx="1"/>
            <g fill="#007F90" transform="translate(18 32)">
                <rect width="1.529" height="16.286" x="5.534" y="22.156" rx=".765" transform="rotate(45 6.299 30.299)"/>
                <rect width="1.529" height="11.981" x="4.012" y="9.786" rx=".765" transform="rotate(45 4.777 15.777)"/>
                <rect width="1.529" height="7.636" x="2.476" y="-.578" rx=".765" transform="rotate(45 3.24 3.24)"/>
            </g>
            <g fill="#007F90" transform="matrix(-1 0 0 1 20 32)">
                <rect width="1.529" height="16.286" x="5.959" y="22.156" rx=".765" transform="rotate(45 6.723 30.299)"/>
                <rect width="1.529" height="11.981" x="4.255" y="9.786" rx=".765" transform="rotate(45 5.02 15.777)"/>
                <rect width="1.529" height="7.636" x="2.718" y="-.578" rx=".765" transform="rotate(45 3.483 3.24)"/>
            </g>
        </g>
        <g transform="translate(377 246)">
            <path fill="url(#h)" d="M18.743 85.053C6.248 80.557 0 71.633 0 58.28 0 44.927 6.25 25.5 18.75 0v.103c12.667 25.434 19 44.827 19 58.178 0 13.355-6.336 22.287-19.007 26.796v-.024z"/>
            <rect width="2" height="63" x="18" y="18" fill="#007F90" rx="1"/>
            <g fill="#007F90" transform="translate(18 32)">
                <rect width="1.529" height="16.286" x="5.534" y="22.156" rx=".765" transform="rotate(45 6.299 30.299)"/>
                <rect width="1.529" height="11.981" x="4.012" y="9.786" rx=".765" transform="rotate(45 4.777 15.777)"/>
                <rect width="1.529" height="7.636" x="2.476" y="-.578" rx=".765" transform="rotate(45 3.24 3.24)"/>
            </g>
            <g fill="#007F90" transform="matrix(-1 0 0 1 20 32)">
                <rect width="1.529" height="16.286" x="5.959" y="22.156" rx=".765" transform="rotate(45 6.723 30.299)"/>
                <rect width="1.529" height="11.981" x="4.255" y="9.786" rx=".765" transform="rotate(45 5.02 15.777)"/>
                <rect width="1.529" height="7.636" x="2.718" y="-.578" rx=".765" transform="rotate(45 3.483 3.24)"/>
            </g>
        </g>
        <g transform="translate(462 263)">
            <path fill="url(#h)" d="M14.797 68.24C4.932 64.633 0 57.473 0 46.76 0 36.047 4.934 20.46 14.803 0v.083c10 20.406 15 35.965 15 46.678 0 10.714-5.002 17.88-15.006 21.498v-.02z"/>
            <rect width="1.579" height="50.547" x="14.211" y="14.442" fill="#007F90" rx=".789"/>
            <g fill="#007F90" transform="translate(14.21 25.674)">
                <rect width="1.207" height="13.066" x="4.369" y="17.776" rx=".604" transform="rotate(45 4.973 24.31)"/>
                <rect width="1.207" height="9.613" x="3.167" y="7.852" rx=".604" transform="rotate(45 3.771 12.658)"/>
                <rect width="1.207" height="6.126" x="1.954" y="-.463" rx=".604" transform="rotate(45 2.558 2.6)"/>
            </g>
            <g fill="#007F90" transform="matrix(-1 0 0 1 15.79 25.674)">
                <rect width="1.207" height="13.066" x="4.704" y="17.776" rx=".604" transform="rotate(45 5.308 24.31)"/>
                <rect width="1.207" height="9.613" x="3.359" y="7.852" rx=".604" transform="rotate(45 3.963 12.658)"/>
                <rect width="1.207" height="6.126" x="2.146" y="-.463" rx=".604" transform="rotate(45 2.75 2.6)"/>
            </g>
        </g>
        <g transform="translate(50 227)">
            <path fill="url(#i)" d="M33.153 106.053l-.153.002c-16.21-.342-26.723-7.31-31.539-20.91-7.268-20.53 15.26-21.74 9.123-36.808-6.137-15.068 13.491-17.844 9.494-29.028C17.438 11.921 21.744 5.533 33 .146V0l.153.073.153-.073v.146C44.562 5.533 48.87 11.92 46.228 19.309c-3.997 11.184 15.63 13.96 9.494 29.028-6.137 15.068 16.392 16.278 9.123 36.807-4.815 13.6-15.328 20.57-31.539 20.906a1.377 1.377 0 0 1-.153.003z"/>
            <rect width="2" height="81" x="32" y="21" fill="#FFF" rx="1"/>
            <g fill="#FFF" transform="translate(32 37)">
                <rect width="2" height="21" x="7.132" y="29.632" rx="1" transform="rotate(45 8.132 40.132)"/>
                <rect width="2" height="15.45" x="5.169" y="14.445" rx="1" transform="rotate(45 6.17 22.17)"/>
                <rect width="2" height="9.846" x="3.188" y=".227" rx="1" transform="rotate(45 4.188 5.15)"/>
            </g>
            <g fill="#FFF" transform="matrix(-1 0 0 1 35 37)">
                <rect width="2" height="21" x="7.132" y="29.632" rx="1" transform="rotate(45 8.132 40.132)"/>
                <rect width="2" height="15.45" x="5.169" y="14.445" rx="1" transform="rotate(45 6.17 22.17)"/>
                <rect width="2" height="9.846" x="3.188" y=".227" rx="1" transform="rotate(45 4.188 5.15)"/>
            </g>
        </g>
        <g transform="translate(405 227)">
            <path fill="url(#i)" d="M33.153 106.053l-.153.002c-16.21-.342-26.723-7.31-31.539-20.91-7.268-20.53 15.26-21.74 9.123-36.808-6.137-15.068 13.491-17.844 9.494-29.028C17.438 11.921 21.744 5.533 33 .146V0l.153.073.153-.073v.146C44.562 5.533 48.87 11.92 46.228 19.309c-3.997 11.184 15.63 13.96 9.494 29.028-6.137 15.068 16.392 16.278 9.123 36.807-4.815 13.6-15.328 20.57-31.539 20.906a1.377 1.377 0 0 1-.153.003z"/>
            <rect width="2" height="81" x="32" y="21" fill="#FFF" rx="1"/>
            <g fill="#FFF" transform="translate(32 37)">
                <rect width="2" height="21" x="7.132" y="29.632" rx="1" transform="rotate(45 8.132 40.132)"/>
                <rect width="2" height="15.45" x="5.169" y="14.445" rx="1" transform="rotate(45 6.17 22.17)"/>
                <rect width="2" height="9.846" x="3.188" y=".227" rx="1" transform="rotate(45 4.188 5.15)"/>
            </g>
            <g fill="#FFF" transform="matrix(-1 0 0 1 35 37)">
                <rect width="2" height="21" x="7.132" y="29.632" rx="1" transform="rotate(45 8.132 40.132)"/>
                <rect width="2" height="15.45" x="5.169" y="14.445" rx="1" transform="rotate(45 6.17 22.17)"/>
                <rect width="2" height="9.846" x="3.188" y=".227" rx="1" transform="rotate(45 4.188 5.15)"/>
            </g>
        </g>
    </g>
</svg>
