<svg xmlns="http://www.w3.org/2000/svg" width="46" height="27" viewBox="0 0 46 27">
    <g fill="none" fill-rule="evenodd">
        <path fill="#FFF" d="M-675-277H605v4935H-675z"/>
        <path fill="#FFB757" d="M.358 26.682H45.56v-3.307H.357z"/>
        <path fill="#000" d="M4.602 15.281c.137.955.407 1.67.81 2.142.737.86 2 1.29 3.788 1.29 1.071 0 1.941-.113 2.608-.34 1.268-.435 1.903-1.243 1.903-2.424 0-.69-.31-1.224-.932-1.603-.62-.369-1.606-.695-2.954-.979l-2.303-.496c-2.266-.49-3.82-1.026-4.667-1.602C1.421 10.305.704 8.797.704 6.746c0-1.872.7-3.427 2.104-4.666C4.212.842 6.272.222 8.99.222c2.27 0 4.206.585 5.808 1.752 1.603 1.167 2.443 2.862 2.522 5.083h-4.274c-.078-1.257-.65-2.15-1.716-2.68-.711-.35-1.594-.523-2.65-.523-1.173 0-2.111.226-2.811.68-.7.453-1.051 1.087-1.051 1.9 0 .747.346 1.304 1.036 1.673.443.245 1.386.534 2.827.864l3.734.866c1.636.378 2.863.883 3.68 1.516 1.268.985 1.903 2.407 1.903 4.27 0 1.908-.752 3.494-2.255 4.757-1.503 1.261-3.625 1.892-6.369 1.892-2.8 0-5.004-.622-6.609-1.865C1.16 19.165.358 17.455.358 15.281h4.244zM24.004 10.807c-.534.555-.87 1.304-1.006 2.253h6.508c-.069-1.01-.404-1.776-1.007-2.3-.601-.522-1.35-.784-2.24-.784-.97 0-1.721.276-2.255.831m5.651-3.287c1.008.455 1.84 1.172 2.498 2.153.591.865.975 1.867 1.151 3.009.102.668.143 1.632.124 2.887H22.905c.058 1.461.562 2.484 1.51 3.071.577.366 1.272.548 2.083.548.861 0 1.56-.222 2.098-.668.294-.24.553-.573.778-1.001h3.857c-.102.864-.57 1.74-1.4 2.63-1.295 1.416-3.107 2.123-5.436 2.123-1.924 0-3.62-.596-5.09-1.79-1.47-1.193-2.205-3.136-2.205-5.826 0-2.521.663-4.455 1.99-5.8 1.327-1.345 3.05-2.019 5.168-2.019 1.257 0 2.39.228 3.397.683M33.433 10.32V7.6h1.92V3.53h3.562v4.071h2.235v2.718h-2.235v7.714c0 .598.071.971.214 1.118.144.148.582.222 1.315.222a9.015 9.015 0 0 0 .706-.028v2.852l-1.705.068c-1.7.062-2.863-.25-3.486-.938-.404-.437-.606-1.111-.606-2.022V10.32h-1.92z"/>
    </g>
</svg>
