<svg xmlns="http://www.w3.org/2000/svg" width="21" height="25" viewBox="0 0 21 25">
    <g fill="none" fill-rule="evenodd">
        <path fill="#FFF" d="M-872-379H408v4935H-872z"/>
        <g fill-rule="nonzero" opacity=".65">
            <path fill="#FFF" d="M15.725 15.927c0-.564.329-1.051.805-1.28a1.421 1.421 0 1 0 0 2.562 1.421 1.421 0 0 1-.805-1.282z"/>
            <path fill="#E3E3E3" d="M7.814 4.274v7.863h9.522V4.274H7.814z"/>
            <path fill="#000" d="M14.493 2.852a.474.474 0 1 0 0-.947.474.474 0 0 0 0 .947zM6.913 2.852a.474.474 0 1 0 0-.947.474.474 0 0 0 0 .947z"/>
            <path fill="#000" d="M17.421 20.189a2.371 2.371 0 0 0 2.283-2.367V3.765c0-.765-.267-1.513-.753-2.104A3.323 3.323 0 0 0 17.033.513 26.35 26.35 0 0 0 11.917.01H9.414c-1.63 0-3.328.156-5.046.5A3.325 3.325 0 0 0 1.702 3.76v14.061a2.37 2.37 0 0 0 2.315 2.368l-3.17 3.272a.474.474 0 0 0 .34.803h3.388a.474.474 0 0 0 .383-.196l1.437-1.983h8.658l1.438 1.983c.089.123.231.196.383.196h3.34a.474.474 0 0 0 .342-.801l-3.135-3.275zM2.65 17.822V3.762c0-1.126.8-2.103 1.904-2.323 1.546-.31 3.18-.482 4.86-.482h2.503c1.652 0 3.311.163 4.932.485a2.374 2.374 0 0 1 1.37.82c.347.423.538.956.538 1.503v14.057c0 .784-.638 1.421-1.422 1.421H4.071a1.423 1.423 0 0 1-1.421-1.42zm1.683 5.496H2.306l3.03-3.127h1.262l-2.265 3.127zm2.749-2.18l.686-.947h5.913l.686.947H7.082zm10.034 2.18L14.85 20.19h1.26l2.994 3.127h-1.99z"/>
            <path fill="#000" d="M4.071 12.611h13.265a.474.474 0 0 0 .473-.474V4.274a.474.474 0 0 0-.473-.474H4.07a.474.474 0 0 0-.474.474v7.863c0 .262.212.474.474.474zm12.79-.947h-5.684V4.747h5.685v6.917zM4.546 4.747h5.685v6.917H4.545V4.747zM8.808 2.852h3.79a.474.474 0 0 0 0-.947h-3.79a.474.474 0 0 0 0 .947zM15.914 14.032c-1.045 0-1.895.85-1.895 1.895s.85 1.895 1.895 1.895 1.895-.85 1.895-1.895-.85-1.895-1.895-1.895zm0 2.843a.949.949 0 0 1 0-1.895.949.949 0 0 1 0 1.895zM5.492 17.822c1.045 0 1.895-.85 1.895-1.895s-.85-1.895-1.895-1.895-1.895.85-1.895 1.895.85 1.895 1.895 1.895zm0-2.842a.949.949 0 0 1 0 1.895.949.949 0 0 1 0-1.895zM12.598 14.506h-3.79a.474.474 0 0 0 0 .948h3.79a.474.474 0 0 0 0-.948zM12.598 16.401h-3.79a.474.474 0 0 0 0 .948h3.79a.474.474 0 0 0 0-.948z"/>
        </g>
    </g>
</svg>
