<svg xmlns="http://www.w3.org/2000/svg" width="47" height="42" viewBox="0 0 47 42">
    <g fill="none" fill-rule="evenodd">
        <path fill="#000" d="M15.765 14.837v3.515h-5.701v16.33H6.057v-16.33H.33v-3.515zM24.585 20.375v3.75a11.794 11.794 0 0 0-1.143-.064c-1.598 0-2.67.48-3.218 1.439-.307.54-.46 1.37-.46 2.491v6.691h-3.999V20.684h3.79v2.44c.613-.933 1.147-1.57 1.603-1.913.742-.574 1.708-.861 2.898-.861.074 0 .136.003.188.006.05.005.164.012.341.02zM25.688 34.682h3.307V20.35h-3.307zM41.865 25.048c-.525-.879-1.375-1.318-2.552-1.318-1.414 0-2.387.667-2.915 1.996-.274.706-.41 1.601-.41 2.689 0 1.718.46 2.927 1.38 3.623.548.408 1.196.612 1.944.612 1.086 0 1.915-.417 2.484-1.25.57-.832.856-1.94.856-3.326 0-1.14-.262-2.148-.787-3.026m2.964-2.784c1.204 1.277 1.806 3.15 1.806 5.62 0 2.607-.588 4.593-1.765 5.96s-2.693 2.05-4.548 2.05c-1.181 0-2.163-.294-2.945-.882-.427-.326-.845-.801-1.255-1.426v7.712h-3.82V20.675H36v2.186c.418-.643.864-1.15 1.337-1.52.863-.661 1.89-.992 3.081-.992 1.737 0 3.206.639 4.411 1.914"/>
        <path fill="#FFB757" d="M28.888 8.177c-1.141-.058-2.018-1.043-1.96-2.197.06-1.155 1.032-2.043 2.174-1.984 1.141.06 2.019 1.043 1.96 2.197a2.081 2.081 0 0 1-2.174 1.984M29.28.512c-3.041-.157-5.633 2.209-5.79 5.284a5.589 5.589 0 0 0 .925 3.389l3.337 6.258c.156.29.45.479.777.496a.934.934 0 0 0 .821-.413l4.018-5.97a.954.954 0 0 0 .117-.244c.59-.836.96-1.846 1.015-2.947C34.657 3.29 32.32.67 29.28.512"/>
    </g>
</svg>
