<svg xmlns="http://www.w3.org/2000/svg" width="24" height="27" viewBox="0 0 24 27">
    <g fill="none" fill-rule="evenodd">
        <path fill="#FFF" d="M-672-377H608v4935H-672z"/>
        <g fill-rule="nonzero">
            <path fill="#000" d="M7.707 6.981c.295-.146.626-.229.977-.23A2.702 2.702 0 0 1 9.6 1.954a2.701 2.701 0 0 0-1.892 5.028z" opacity=".1"/>
            <path fill="#000" d="M9.573 1.28l-.079-.001h-1.2a2.073 2.073 0 0 0-2.073 2.073v.654h1.357v-.654c0-1.119.886-2.03 1.995-2.071zM12.24 19.565a1.03 1.03 0 0 0-.17-.333l-3.188-3.189v1.084l2.104 2.105c.059.063.154.252.17.333l.827 5.338a.247.247 0 0 1 .22-.135h.844l-.807-5.203zM7.704 15.705H6.631v2.171c-.004.086-.07.287-.115.356L2.807 23.3l.004.003a.248.248 0 0 1 .279.003l1.654 1.159.135-.185-.999-.73 3.71-5.07a1.03 1.03 0 0 0 .114-.355v-2.42zM3.817 11.595h.827c.133 0 .256.041.359.111V8.541c0-.35.286-.636.636-.636H4.262a.638.638 0 0 0-.636.636v3.083c.06-.019.125-.03.191-.03zM9.23 6.818a2.215 2.215 0 0 0-2.756 2.149v6.738h1.081V8.967c0-1.037.713-1.907 1.675-2.149z" opacity=".1"/>
            <path fill="#000" d="M12.792 11.605c-.84 0-1.923-.448-2.518-1.043L8.952 9.24a.84.84 0 0 1-.233-.446.844.844 0 0 0-.051 1.24l1.322 1.323c.594.595 1.677 1.043 2.518 1.043h3.171v-.795h-2.887z" opacity=".1"/>
            <path fill="#FFCFAB" d="M17.255 12.546a.248.248 0 0 1-.248.248h-1.08a.248.248 0 0 1-.248-.248v-1.671c0-.136.112-.248.248-.248h1.08c.136 0 .248.112.248.248v1.671z"/>
            <path fill="#FFBB4A" d="M5.28 14.585c0 .35-.286.636-.636.636h-.827a.638.638 0 0 1-.636-.636V12.23c0-.35.286-.636.636-.636h.827c.35 0 .636.286.636.636v2.354z"/>
            <path fill="#000" d="M22.838 25.522h-5.394a.93.93 0 0 0 .02-.19v-4.168a.371.371 0 1 0-.744 0v4.168a.19.19 0 0 1-.38 0V13.165h.38v6.463a.371.371 0 1 0 .743 0v-6.664c.101-.11.163-.257.163-.418v-1.671a.616.616 0 0 0-.163-.417v-.393a.934.934 0 0 0-1.866 0v.275h-3.09c-.29 0-.856-.234-1.061-.44l-.17-.17v-.763c0-.696-.277-1.328-.726-1.794a3.072 3.072 0 0 0 1.439-2.795h1.83a.371.371 0 1 0 0-.743h-1.88v-.283A2.447 2.447 0 0 0 9.494.907h-1.2A2.447 2.447 0 0 0 5.85 3.352v1.217c0 .98.461 1.854 1.178 2.417a2.61 2.61 0 0 0-.491.548H4.262c-.555 0-1.007.452-1.007 1.007v.062h-1.07a.371.371 0 1 0 0 .743h1.07v.551H2.86a.371.371 0 1 0 0 .743h.394v.755a1.007 1.007 0 0 0-.445.836v2.353c0 .556.452 1.008 1.007 1.008h.827a1 1 0 0 0 .489-.127h.97v.24a.37.37 0 0 0 .156.303v.543H5.224a.371.371 0 1 0 0 .743h1.035v.495h-.641a.371.371 0 1 0 0 .743h.218l-3.315 4.53a.611.611 0 0 0-.08.092l-.362.516a.615.615 0 0 0-.102.463c.029.163.12.305.254.4l1.414.99H.44a.371.371 0 1 0 0 .742h22.397a.371.371 0 1 0 0-.743zM4.908 14.585a.265.265 0 0 1-.264.264h-.827a.265.265 0 0 1-.265-.264V12.23c0-.146.12-.265.265-.265h.827c.146 0 .265.119.265.265v2.354zm1.194-5.618v5.755h-.46c.005-.045.01-.09.01-.137V12.23c0-.556-.452-1.008-1.008-1.008h-.646v-.583h.27a.371.371 0 1 0 0-.743h-.27v-.551h.27a.371.371 0 1 0 0-.743h-.27V8.54c0-.146.118-.264.264-.264h1.845a.26.26 0 0 1 .085.015 2.58 2.58 0 0 0-.09.675zm10.238 1.098a.19.19 0 0 1 .38 0v.19h-.38v-.19zm-.29.934h.833v1.423h-.832V11zm-3.542.084h2.8v.945h-2.8c-.741 0-1.732-.41-2.256-.934L8.93 9.772a.47.47 0 0 1 0-.669.47.47 0 0 1 .668 0l1.323 1.323c.344.344 1.1.657 1.587.657zM6.593 3.352c0-.938.763-1.702 1.701-1.702h1.2c.939 0 1.702.764 1.702 1.702v.283H6.593v-.283zm0 1.217c0-.064.003-.128.009-.191h4.641A2.332 2.332 0 0 1 9.9 6.682a2.57 2.57 0 0 0-2.175-.115 2.33 2.33 0 0 1-1.132-1.998zm.252 4.398c0-1.017.827-1.844 1.844-1.844 1.017 0 1.844.827 1.844 1.844v.02l-.41-.409a1.208 1.208 0 0 0-.859-.356c-.325 0-.63.126-.86.356-.23.23-.356.535-.356.86 0 .324.127.63.357.86l.874.873a2.935 2.935 0 0 1-2.434.173V8.967zm0 3.16a3.669 3.669 0 0 0 2.98-.415c.071.066.148.13.23.19a2.95 2.95 0 0 1-3.21.78v-.554zm0 1.336a3.693 3.693 0 0 0 3.688-.985v.712a.371.371 0 1 0 .743 0v-.645a3.85 3.85 0 0 0 1.232.226h2.843a.622.622 0 0 0 .246.298v12.263c0 .065.007.129.02.19h-.14v-.506a.62.62 0 0 0-.619-.62h-.3l-.81-5.233a3.484 3.484 0 0 0-.905-1.783l-1.58-1.58a.372.372 0 0 0 .013-.095v-.98a.371.371 0 1 0-.743 0v.609H6.845v-1.87zm5.436 10.934l-.758-4.89a1.342 1.342 0 0 0-.274-.539l-1.996-1.994v-.897h1.236l1.829 1.828c.331.332.624.909.696 1.372l.793 5.12H12.28zm-9.303-.716l1.973 1.382-.22.313-1.972-1.381.22-.314zm2.755 1.244a.615.615 0 0 0-.254-.4l-.211-.147 1.032-1.41a.371.371 0 1 0-.6-.439l-1.04 1.423-1.236-.866 3.332-4.554h.606a.371.371 0 1 0 0-.742h-.36v-.496h.417a.371.371 0 1 0 0-.743h-.417v-.474H8.51v1.803c0 .468-.2 1.083-.478 1.462L6.57 21.34a.371.371 0 1 0 .6.438l1.462-1.999c.344-.47.584-1.16.617-1.76l1.462 1.462a.905.905 0 0 1 .081.158l.81 5.228a.617.617 0 0 0-.019.148v.506H5.536l.095-.134a.615.615 0 0 0 .102-.463zm6.593.597v-.382h2.409v.382h-2.409z"/>
        </g>
    </g>
</svg>
